<?xml version="1.0" encoding="UTF-8" standalone="yes"?>
<svg xmlns="http://www.w3.org/2000/svg" height="452" width="452">
<script type="text/ecmascript">
      <![CDATA[
        var shown = 1;
        function click() {
             var seq = document.getElementById("seq");
             if (shown==1) {
               seq.setAttribute("style", "visibility: hidden");
               shown = 0;
             } else {
               seq.setAttribute("style", "visibility: visible");
               shown = 1;
             }
         }
        ]]>
</script>
  <rect style="stroke: white; fill: white" height="452" x="0" y="0" width="452" onclick="click(evt)" />
  <g transform="scale(0.262192,0.262192) translate(516.386597,714.287170)">
    <polyline style="stroke: black; fill: none; stroke-width: 1.5" id="outline" points="
      94.857,80.747
      94.491,95.742
      94.125,110.738
      86.627,110.555
      85.458,95.601
      84.288,80.646
      83.119,65.692
      81.949,50.738
      93.234,39.912
      94.869,24.360
      86.082,11.425
      71.022,7.214
      56.800,13.715
      50.131,27.859
      54.164,42.968
      66.995,51.907
      68.164,66.861
      69.334,81.816
      70.504,96.770
      71.673,111.724
      56.370,134.722
      51.355,158.383
      38.389,150.841
      25.423,143.299
      12.457,135.756
      -0.509,128.214
      -13.475,120.672
      -26.441,113.130
      -32.192,106.201
      -39.461,105.584
      -52.452,98.084
      -65.442,90.584
      -64.282,73.080
      -77.136,57.077
      -100.362,53.327
      -111.998,43.861
      -113.759,28.383
      -125.694,18.949
      -140.438,20.723
      -152.058,11.238
      -163.663,1.734
      -159.411,-8.703
      -160.175,-21.023
      -166.699,-32.754
      -178.504,-41.183
      -193.844,-43.957
      -204.433,-54.581
      -215.023,-65.205
      -218.798,-73.380
      -225.664,-75.846
      -236.288,-86.436
      -246.911,-97.025
      -233.156,-115.974
      -234.758,-144.603
      -257.116,-170.273
      -262.732,-184.181
      -257.809,-199.451
      -266.797,-212.739
      -282.801,-213.854
      -293.544,-201.939
      -290.785,-186.135
      -276.641,-178.565
      -271.025,-164.656
      -277.375,-160.666
      -285.355,-173.367
      -293.336,-186.068
      -306.037,-178.087
      -298.056,-165.387
      -290.076,-152.686
      -296.426,-148.695
      -306.521,-159.790
      -316.616,-170.885
      -308.111,-179.605
      -301.991,-191.026
      -299.090,-204.454
      -300.034,-218.943
      -305.160,-233.363
      -314.469,-246.485
      -327.601,-257.086
      -343.834,-264.053
      -345.266,-279.809
      -358.848,-285.922
      -367.338,-298.288
      -375.828,-310.654
      -384.318,-323.020
      -392.809,-335.386
      -401.299,-347.752
      -402.731,-363.508
      -416.313,-369.622
      -413.179,-385.112
      -421.987,-398.235
      -437.509,-401.205
      -450.538,-392.259
      -453.344,-376.706
      -444.261,-363.772
      -428.679,-361.131
      -427.854,-346.260
      -413.665,-339.262
      -405.175,-326.896
      -396.684,-314.530
      -388.194,-302.164
      -379.704,-289.798
      -371.214,-277.432
      -370.389,-262.560
      -356.200,-255.563
      -361.932,-250.726
      -376.041,-255.819
      -373.396,-241.053
      -379.129,-236.217
      -389.889,-246.667
      -394.399,-261.832
      -408.920,-265.148
      -401.703,-278.408
      -398.333,-293.124
      -399.060,-308.203
      -403.829,-322.526
      -412.286,-335.031
      -423.804,-344.790
      -437.529,-351.078
      -452.441,-353.429
      -467.434,-351.669
      -481.396,-345.927
      -493.291,-336.631
      -502.235,-324.469
      -507.566,-310.345
      -508.887,-295.307
      -506.100,-280.470
      -499.413,-266.935
      -489.321,-255.707
      -476.574,-247.620
      -462.117,-243.272
      -447.024,-242.987
      -432.413,-246.786
      -419.370,-254.388
      -415.630,-239.970
      -400.340,-235.906
      -389.579,-225.456
      -394.387,-219.700
      -405.899,-229.317
      -420.677,-231.890
      -415.516,-217.806
      -404.004,-208.189
      -408.813,-202.433
      -421.011,-211.163
      -430.372,-225.298
      -446.546,-220.215
      -446.140,-203.266
      -429.740,-198.965
      -417.542,-190.235
      -407.802,-170.161
      -392.729,-155.569
      -374.770,-147.598
      -356.485,-146.418
      -340.200,-151.300
      -327.711,-160.790
      -317.616,-149.695
      -307.521,-138.601
      -312.004,-132.588
      -326.901,-134.340
      -320.970,-120.563
      -325.453,-114.550
      -338.968,-121.058
      -336.500,-135.961
      -338.332,-150.955
      -344.315,-164.825
      -353.965,-176.446
      -366.499,-184.877
      -380.900,-189.434
      -396.003,-189.748
      -410.581,-185.793
      -423.454,-177.889
      -433.578,-166.679
      -440.132,-153.069
      -442.585,-138.164
      -440.738,-123.172
      -434.741,-109.308
      -425.079,-97.696
      -412.537,-89.277
      -398.131,-84.735
      -383.028,-84.436
      -368.454,-88.406
      -355.589,-96.323
      -345.476,-107.544
      -331.962,-101.035
      -321.181,-85.794
      -307.108,-75.837
      -291.873,-71.579
      -277.503,-72.669
      -265.670,-78.099
      -257.501,-86.401
      -246.877,-75.812
      -236.253,-65.222
      -225.646,-54.616
      -215.057,-43.992
      -204.468,-33.368
      -207.897,-26.698
      -221.237,-33.555
      -234.578,-40.413
      -247.919,-47.270
      -254.776,-33.930
      -241.435,-27.072
      -228.095,-20.215
      -214.754,-13.357
      -218.183,-6.687
      -232.985,-9.115
      -247.787,-11.544
      -262.589,-13.972
      -268.316,-23.030
      -277.856,-27.415
      -288.028,-25.927
      -295.584,-19.280
      -310.401,-21.612
      -325.219,-23.945
      -340.037,-26.277
      -354.854,-28.609
      -367.262,-39.332
      -382.661,-33.693
      -385.211,-17.493
      -372.288,-7.397
      -357.186,-13.791
      -342.369,-11.459
      -327.551,-9.127
      -312.733,-6.795
      -297.916,-4.463
      -283.661,8.708
      -265.018,0.830
      -250.216,3.259
      -235.413,5.687
      -220.611,8.115
      -195.243,22.457
      -173.167,13.338
      -161.562,22.843
      -158.418,29.425
      -149.904,32.359
      -148.641,47.155
      -136.976,56.921
      -121.464,55.496
      -109.829,64.962
      -111.782,72.204
      -126.264,68.298
      -130.170,82.781
      -115.688,86.686
      -117.640,93.928
      -132.458,96.260
      -147.276,98.592
      -162.093,100.924
      -176.911,103.256
      -191.778,105.250
      -206.686,106.905
      -221.595,108.560
      -228.297,94.964
      -239.247,84.483
      -253.124,78.381
      -268.250,77.397
      -282.800,81.649
      -295.016,90.623
      -303.424,103.235
      -307.008,117.964
      -305.336,133.030
      -298.608,146.614
      -287.638,157.075
      -273.751,163.151
      -258.623,164.107
      -244.081,159.829
      -231.881,150.832
      -223.496,138.204
      -219.939,123.469
      -205.031,121.814
      -190.122,120.158
      -203.035,127.792
      -212.056,139.776
      -215.821,154.296
      -213.759,169.154
      -206.184,182.100
      -194.240,191.176
      -179.738,195.006
      -164.871,193.011
      -151.890,185.494
      -142.761,173.592
      -138.866,159.107
      -140.793,144.231
      -148.252,131.217
      -160.113,122.034
      -174.579,118.073
      -159.761,115.741
      -144.944,113.409
      -130.126,111.077
      -115.308,108.745
      -90.240,115.403
      -72.942,103.575
      -59.952,111.075
      -46.961,118.575
      -33.983,126.096
      -21.017,133.638
      -8.051,141.180
      4.915,148.722
      17.881,156.265
      30.847,163.807
      43.812,171.349
      40.810,180.191
      39.191,189.387
      38.991,198.722
      40.216,207.979
      42.838,216.941
      46.794,225.399
      51.993,233.155
      58.313,240.029
      65.607,245.859
      58.749,259.200
      51.892,272.540
      55.826,258.065
      51.782,243.621
      40.903,233.294
      26.267,230.006
      12.017,234.688
      2.183,246.014
      -0.452,260.781
      4.858,274.811
      -4.981,286.133
      -14.821,297.454
      -24.661,308.776
      -34.500,320.098
      -52.029,321.039
      -63.184,334.150
      -61.379,350.928
      -71.256,362.217
      -81.132,373.507
      -89.939,369.393
      -99.415,367.278
      -109.114,367.256
      -118.580,369.324
      -127.366,373.381
      -135.063,379.230
      -141.311,386.594
      -145.818,395.123
      -148.377,404.412
      -148.872,414.025
      -147.284,423.508
      -143.692,432.415
      -138.270,440.329
      -147.887,451.841
      -157.504,463.352
      -167.121,474.864
      -176.737,486.375
      -186.354,497.887
      -195.971,509.398
      -201.896,510.392
      -206.625,513.241
      -209.667,517.254
      -210.852,521.653
      -210.325,525.699
      -225.383,530.552
      -228.368,545.145
      -243.427,549.998
      -246.412,564.591
      -256.614,575.587
      -266.817,586.582
      -277.019,597.578
      -294.569,597.949
      -306.145,610.690
      -304.887,627.518
      -315.125,638.480
      -325.363,649.443
      -340.746,647.406
      -354.372,654.830
      -361.002,668.860
      -358.085,684.101
      -346.745,694.692
      -331.341,696.561
      -317.796,688.990
      -311.320,674.889
      -314.401,659.681
      -304.163,648.719
      -293.924,637.756
      -281.187,639.132
      -269.794,632.860
      -263.971,621.015
      -266.024,607.781
      -255.821,596.785
      -245.618,585.789
      -235.416,574.793
      -221.087,570.726
      -217.373,555.347
      -203.044,551.280
      -199.329,535.901
      -204.783,549.875
      -206.176,564.810
      -203.399,579.551
      -196.667,592.955
      -186.502,603.986
      -173.691,611.788
      -159.226,615.758
      -144.227,615.588
      -129.855,611.292
      -117.224,603.201
      -107.312,591.944
      -100.885,578.390
      -98.442,563.590
      -100.173,548.690
      -105.942,534.844
      -115.303,523.124
      -127.532,514.437
      -141.681,509.456
      -156.654,508.567
      -171.293,511.839
      -184.460,519.015
      -174.843,507.504
      -165.226,495.992
      -155.609,484.481
      -145.992,472.969
      -136.375,461.458
      -126.758,449.946
      -107.337,455.928
      -87.242,452.591
      -70.719,440.595
      -61.278,422.436
      -60.948,401.924
      -69.843,383.383
      -59.966,372.094
      -50.090,360.804
      -37.315,361.765
      -26.131,355.126
      -20.697,343.098
      -23.179,329.937
      -13.339,318.616
      -3.499,307.294
      6.340,295.972
      16.180,284.651
      22.921,287.938
      16.348,301.420
      29.830,307.994
      36.404,294.512
      43.145,297.799
      40.285,312.523
      37.424,327.248
      34.564,341.973
      31.703,356.698
      28.843,371.422
      25.590,375.181
      24.164,379.384
      24.440,383.289
      26.027,386.305
      23.310,401.057
      9.471,407.823
      2.352,421.283
      4.499,436.178
      14.881,446.825
      12.165,461.577
      9.448,476.329
      6.731,491.080
      -7.582,496.837
      -16.492,509.432
      -17.155,524.845
      -9.361,538.158
      4.404,545.124
      19.748,543.519
      31.774,533.856
      36.645,519.217
      32.806,504.275
      21.483,493.797
      24.200,479.045
      26.916,464.293
      29.633,449.541
      43.127,443.291
      50.439,430.139
      48.583,415.026
      38.062,403.773
      40.779,389.021
      43.567,374.283
      46.428,359.558
      49.288,344.833
      52.149,330.109
      55.010,315.384
      57.870,300.659
      56.019,315.545
      56.676,330.530
      59.822,345.196
      65.371,359.133
      73.165,371.948
      82.988,383.285
      94.563,392.825
      107.568,400.300
      121.637,405.503
      136.376,408.287
      151.373,408.573
      166.208,406.355
      180.466,401.694
      193.746,394.721
      205.678,385.631
      215.927,374.678
      224.206,362.169
      230.283,348.455
      233.988,333.920
      235.217,318.971
      233.936,304.025
      230.181,289.503
      224.056,275.810
      215.734,263.331
      205.447,252.413
      193.484,243.365
      180.180,236.437
      165.906,231.826
      151.063,229.659
      136.067,229.997
      121.338,232.832
      107.287,238.083
      94.309,245.604
      82.766,255.184
      72.983,266.554
      65.232,279.398
      72.090,266.057
      78.947,252.717
      94.345,256.196
      110.120,255.614
      114.401,269.990
      118.682,284.366
      122.963,298.742
      114.218,307.469
      109.990,319.002
      111.010,331.171
      117.028,341.714
      126.870,348.698
      138.669,350.870
      143.043,365.218
      147.418,379.566
      151.793,393.913
      147.566,409.759
      159.365,421.148
      175.051,416.365
      178.488,400.331
      166.141,389.539
      161.766,375.191
      157.391,360.843
      153.016,346.495
      164.314,332.794
      165.034,314.891
      154.692,300.065
      137.339,294.461
      133.058,280.085
      128.777,265.709
      124.496,251.333
      134.753,249.246
      144.930,245.254
      154.673,239.338
      163.618,231.542
      171.409,221.981
      177.707,210.833
      182.201,198.343
      184.623,184.812
      184.756,170.594
      199.581,172.878
      214.402,175.186
      229.220,177.518
      234.519,190.164
      245.270,198.500
      258.624,200.452
      271.109,195.621
      279.534,185.354
      294.359,187.638
      309.184,189.922
      312.296,211.086
      322.443,229.896
      338.392,244.094
      358.213,251.980
      379.516,252.619
      399.736,245.947
      416.445,232.779
      427.638,214.713
      442.133,218.571
      456.628,222.430
      471.123,226.289
      485.618,230.148
      471.245,253.461
      479.563,288.134
      515.633,315.809
      529.084,322.449
      542.534,329.088
      555.984,335.728
      569.435,342.368
      582.885,349.008
      596.336,355.648
      609.786,362.287
      623.226,368.949
      636.654,375.633
      634.308,383.548
      635.069,392.671
      639.431,401.740
      647.372,409.322
      658.306,414.018
      661.678,422.367
      668.416,425.165
      678.510,436.260
      675.232,451.427
      681.524,465.610
      694.969,473.357
      710.396,471.688
      721.874,461.246
      724.988,446.044
      718.541,431.930
      705.013,424.329
      689.605,426.165
      679.510,415.070
      669.434,403.959
      673.699,397.790
      686.037,406.320
      698.375,414.850
      710.714,423.381
      725.664,424.599
      719.244,411.042
      706.906,402.512
      694.567,393.982
      682.229,385.452
      686.494,379.282
      700.457,384.762
      714.420,390.243
      728.383,395.723
      742.346,401.203
      756.310,406.683
      770.273,412.163
      769.835,421.798
      771.805,431.222
      776.049,439.845
      782.294,447.128
      790.141,452.620
      799.091,455.981
      808.580,457.008
      818.009,455.645
      826.787,451.986
      834.365,446.268
      840.273,438.859
      854.340,444.065
      861.195,449.905
      868.462,449.266
      882.546,454.427
      886.932,459.099
      892.217,460.708
      896.739,459.575
      910.856,464.644
      924.974,469.713
      939.091,474.783
      953.192,479.898
      967.276,485.058
      981.361,490.219
      995.437,495.403
      1005.693,507.449
      1020.315,504.611
      1019.559,519.584
      1025.684,534.287
      1038.229,545.557
      1055.294,550.621
      1073.811,547.742
      1087.588,553.674
      1101.366,559.605
      1104.905,577.493
      1118.421,589.496
      1136.285,590.872
      1151.212,581.253
      1164.951,587.273
      1172.104,601.634
      1187.820,604.854
      1200.044,594.464
      1199.398,578.434
      1186.378,569.061
      1170.972,573.535
      1157.233,567.514
      1156.454,555.543
      1150.668,544.952
      1140.900,537.743
      1128.934,535.309
      1116.986,538.161
      1107.297,545.827
      1093.519,539.896
      1079.742,533.965
      1082.219,526.886
      1096.377,531.840
      1111.116,529.051
      1101.331,517.682
      1087.173,512.727
      1089.650,505.648
      1104.120,509.601
      1118.590,513.554
      1129.738,525.581
      1145.666,521.676
      1149.987,505.857
      1138.257,494.396
      1122.543,499.084
      1108.073,495.131
      1093.603,491.178
      1083.567,479.407
      1070.569,472.276
      1056.520,470.319
      1043.319,473.349
      1032.599,480.530
      1025.521,490.544
      1016.271,478.870
      1000.643,481.336
      995.526,476.136
      986.522,476.135
      972.437,470.974
      958.353,465.813
      955.609,462.045
      950.522,459.891
      944.160,460.665
      930.043,455.596
      915.925,450.527
      901.808,445.458
      887.707,440.343
      873.623,435.182
      859.547,429.998
      845.480,424.791
      843.221,404.541
      830.739,388.336
      811.588,380.925
      791.293,384.535
      775.753,398.200
      761.790,392.720
      747.827,387.240
      733.863,381.760
      719.900,376.279
      705.937,370.799
      691.974,365.319
      664.785,349.882
      643.338,362.204
      629.909,355.520
      625.378,349.802
      616.426,348.837
      602.975,342.197
      589.525,335.557
      576.075,328.918
      562.624,322.278
      549.174,315.638
      535.723,308.998
      522.273,302.358
      523.403,294.944
      538.232,297.204
      553.060,299.463
      555.320,284.634
      540.491,282.375
      525.663,280.115
      526.792,272.701
      541.628,278.199
      552.997,268.577
      561.635,281.161
      574.881,288.743
      590.106,289.819
      604.287,284.175
      614.609,272.930
      619.021,258.319
      616.648,243.241
      607.961,230.691
      594.685,223.161
      579.455,222.145
      565.297,227.845
      555.020,239.130
      550.665,253.759
      536.890,248.095
      524.460,257.883
      522.602,250.617
      537.134,246.900
      551.666,243.183
      566.198,239.466
      580.730,235.749
      591.457,225.264
      577.013,221.217
      562.481,224.934
      547.949,228.651
      533.417,232.368
      518.885,236.085
      517.026,228.819
      531.152,223.773
      545.286,218.750
      559.420,213.726
      573.554,208.703
      586.944,216.780
      602.385,214.309
      612.586,202.457
      612.731,186.820
      602.750,174.782
      587.358,172.026
      573.820,179.854
      568.530,194.569
      554.397,199.592
      540.263,204.616
      526.129,209.639
      518.868,208.929
      511.957,214.701
      523.669,205.330
      529.430,191.481
      527.819,176.567
      519.232,164.268
      505.788,157.615
      490.802,158.250
      477.968,166.014
      470.451,178.995
      470.106,193.991
      477.016,207.305
      489.477,215.652
      474.982,211.794
      460.487,207.935
      445.992,204.076
      431.496,200.218
      432.039,193.889
      431.922,187.537
      431.149,181.232
      429.726,175.042
      427.670,169.031
      425.002,163.267
      437.312,154.696
      449.623,146.126
      461.933,137.556
      474.244,128.985
      486.554,120.415
      500.106,127.530
      515.411,127.521
      528.954,120.390
      537.622,107.775
      539.423,92.576
      533.944,78.285
      522.443,68.186
      507.564,64.600
      492.725,68.350
      481.336,78.575
      476.015,92.926
      477.984,108.104
      465.674,116.675
      453.363,125.245
      441.052,133.815
      428.742,142.386
      416.431,150.956
      409.154,144.022
      400.835,138.369
      391.698,134.151
      381.989,131.482
      371.969,130.436
      361.906,131.044
      352.073,133.290
      342.735,137.118
      334.143,142.423
      326.530,149.067
      320.103,156.871
      315.037,165.626
      311.468,175.097
      296.643,172.813
      281.818,170.529
      274.725,155.661
      259.998,147.913
      243.397,150.542
      231.552,162.700
      216.734,160.368
      210.693,156.279
      201.865,158.053
      187.040,155.769
      183.643,149.082
      197.749,143.978
      211.854,138.875
      225.959,133.772
      240.891,135.201
      253.128,126.527
      256.724,111.964
      249.931,98.590
      236.051,92.905
      221.828,97.670
      214.175,110.570
      201.733,118.949
      189.292,127.328
      176.851,135.708
      173.455,129.021
      180.356,115.703
      187.257,102.384
      194.158,89.066
      201.059,75.748
      207.959,62.429
      222.184,67.279
      236.972,69.955
      251.994,70.397
      266.915,68.595
      281.399,64.589
      295.125,58.468
      307.786,50.371
      319.098,40.476
      328.809,29.007
      336.702,16.218
      342.600,2.395
      346.372,-12.152
      347.934,-27.100
      347.251,-42.113
      344.338,-56.856
      339.260,-71.001
      332.130,-84.230
      323.108,-96.249
      312.395,-106.790
      300.231,-115.615
      286.887,-122.529
      272.662,-127.377
      257.873,-130.051
      242.851,-130.491
      227.931,-128.686
      213.447,-124.678
      199.722,-118.556
      187.063,-110.457
      175.752,-100.561
      166.043,-89.090
      158.152,-76.299
      152.255,-62.476
      148.485,-47.928
      146.925,-32.981
      147.610,-17.968
      150.526,-3.225
      155.606,10.919
      162.738,24.148
      171.762,36.166
      182.476,46.704
      194.641,55.528
      187.740,68.847
      180.839,82.165
      173.938,95.483
      167.037,108.802
      160.136,122.120
      152.977,119.886
      157.445,105.567
      161.913,91.248
      166.381,76.928
      170.848,62.609
      175.316,48.290
      179.784,33.971
      184.252,19.652
      169.933,15.184
      165.465,29.503
      160.997,43.822
      156.529,58.141
      152.061,72.461
      147.593,86.780
      143.126,101.099
      138.658,115.418
      131.498,113.184
      133.395,98.304
      135.293,83.425
      137.190,68.545
      139.088,53.666
      140.985,38.786
      142.883,23.907
      144.780,9.027
      146.677,-5.852
      148.575,-20.732
      158.930,-33.448
      152.843,-48.675
      136.576,-50.750
      126.862,-37.537
      133.695,-22.629
      131.798,-7.750
      129.900,7.130
      128.003,22.010
      126.106,36.889
      124.208,51.769
      122.311,66.648
      120.413,81.528
      118.516,96.407
      116.619,111.287
      109.121,111.104
      109.487,96.108
      109.852,81.113
      110.218,66.117
      110.584,51.121
      103.403,37.952
      95.589,50.756
    " />
    <g style="stroke: black; stroke-width: 1; fill: none;" id="pairs">
      <line id="4,20" x1="86.62746" y1="110.55490" x2="71.67313" y2="111.72449" />
      <line id="5,19" x1="85.45787" y1="95.60057" x2="70.50354" y2="96.77016" />
      <line id="6,18" x1="84.28828" y1="80.64624" x2="69.33395" y2="81.81583" />
      <line id="7,17" x1="83.11868" y1="65.69189" x2="68.16435" y2="66.86150" />
      <line id="8,16" x1="81.94910" y1="50.73756" x2="66.99476" y2="51.90717" />
      <line id="22,299" x1="51.35466" y1="158.38309" x2="43.81245" y2="171.34900" />
      <line id="23,298" x1="38.38874" y1="150.84088" x2="30.84653" y2="163.80681" />
      <line id="24,297" x1="25.42282" y1="143.29868" x2="17.88061" y2="156.26459" />
      <line id="25,296" x1="12.45689" y1="135.75647" x2="4.91469" y2="148.72238" />
      <line id="26,295" x1="-0.50903" y1="128.21426" x2="-8.05124" y2="141.18018" />
      <line id="27,294" x1="-13.47495" y1="120.67206" x2="-21.01716" y2="133.63797" />
      <line id="28,293" x1="-26.44087" y1="113.12984" x2="-33.98308" y2="126.09576" />
      <line id="30,292" x1="-39.46125" y1="105.58427" x2="-46.96125" y2="118.57465" />
      <line id="31,291" x1="-52.45163" y1="98.08427" x2="-59.95163" y2="111.07465" />
      <line id="32,290" x1="-65.44201" y1="90.58427" x2="-72.94201" y2="103.57465" />
      <line id="35,238" x1="-100.36244" y1="53.32683" x2="-109.82876" y2="64.96249" />
      <line id="36,237" x1="-111.99811" y1="43.86050" x2="-121.46443" y2="55.49617" />
      <line id="39,234" x1="-140.43797" y1="20.72296" x2="-149.90428" y2="32.35864" />
      <line id="40,232" x1="-152.05823" y1="11.23773" x2="-161.56233" y2="22.84256" />
      <line id="41,231" x1="-163.66306" y1="1.73364" x2="-173.16716" y2="13.33844" />
      <line id="46,195" x1="-193.84390" y1="-43.95749" x2="-204.46774" y2="-33.36813" />
      <line id="47,194" x1="-204.43324" y1="-54.58133" x2="-215.05708" y2="-43.99197" />
      <line id="48,193" x1="-215.02258" y1="-65.20517" x2="-225.64642" y2="-54.61581" />
      <line id="50,192" x1="-225.66368" y1="-75.84625" x2="-236.25302" y2="-65.22241" />
      <line id="51,191" x1="-236.28752" y1="-86.43561" x2="-246.87686" y2="-75.81177" />
      <line id="52,190" x1="-246.91135" y1="-97.02493" x2="-257.50070" y2="-86.40109" />
      <line id="55,63" x1="-257.11563" y1="-170.27252" x2="-271.02460" y2="-164.65643" />
      <line id="56,62" x1="-262.73169" y1="-184.18149" x2="-276.64069" y2="-178.56543" />
      <line id="70,157" x1="-296.42633" y1="-148.69547" x2="-307.52112" y2="-138.60065" />
      <line id="71,156" x1="-306.52115" y1="-159.79028" x2="-317.61594" y2="-149.69543" />
      <line id="72,155" x1="-316.61597" y1="-170.88507" x2="-327.71075" y2="-160.79025" />
      <line id="80,105" x1="-343.83362" y1="-264.05276" x2="-356.19965" y2="-255.56271" />
      <line id="82,103" x1="-358.84824" y1="-285.92209" x2="-371.21429" y2="-277.43198" />
      <line id="83,102" x1="-367.33832" y1="-298.28812" x2="-379.70435" y2="-289.79800" />
      <line id="84,101" x1="-375.82837" y1="-310.65414" x2="-388.19440" y2="-302.16409" />
      <line id="85,100" x1="-384.31845" y1="-323.02017" x2="-396.68448" y2="-314.53012" />
      <line id="86,99" x1="-392.80850" y1="-335.38620" x2="-405.17453" y2="-326.89615" />
      <line id="87,98" x1="-401.29855" y1="-347.75223" x2="-413.66461" y2="-339.26218" />
      <line id="89,96" x1="-416.31320" y1="-369.62155" x2="-428.67923" y2="-361.13144" />
      <line id="109,137" x1="-379.12863" y1="-236.21689" x2="-389.57889" y2="-225.45621" />
      <line id="110,136" x1="-389.88931" y1="-246.66714" x2="-400.33957" y2="-235.90640" />
      <line id="112,134" x1="-408.91956" y1="-265.14835" x2="-419.36978" y2="-254.38766" />
      <line id="143,149" x1="-408.81262" y1="-202.43311" x2="-417.54236" y2="-190.23508" />
      <line id="144,148" x1="-421.01065" y1="-211.16281" x2="-429.74039" y2="-198.96481" />
      <line id="161,184" x1="-325.45325" y1="-114.54990" x2="-331.96152" y2="-101.03537" />
      <line id="162,183" x1="-338.96780" y1="-121.05817" x2="-345.47604" y2="-107.54364" />
      <line id="204,229" x1="-218.18298" y1="-6.68686" x2="-220.61137" y2="8.11526" />
      <line id="205,228" x1="-232.98512" y1="-9.11523" x2="-235.41350" y2="5.68689" />
      <line id="206,227" x1="-247.78725" y1="-11.54364" x2="-250.21564" y2="3.25851" />
      <line id="207,226" x1="-262.58936" y1="-13.97202" x2="-265.01776" y2="0.83011" />
      <line id="211,224" x1="-295.58377" y1="-19.28040" x2="-297.91583" y2="-4.46280" />
      <line id="212,223" x1="-310.40137" y1="-21.61246" x2="-312.73343" y2="-6.79486" />
      <line id="213,222" x1="-325.21899" y1="-23.94452" x2="-327.55106" y2="-9.12689" />
      <line id="214,221" x1="-340.03659" y1="-26.27658" x2="-342.36865" y2="-11.45895" />
      <line id="215,220" x1="-354.85419" y1="-28.60864" x2="-357.18625" y2="-13.79102" />
      <line id="243,288" x1="-117.64044" y1="93.92760" x2="-115.30838" y2="108.74521" />
      <line id="244,287" x1="-132.45805" y1="96.25966" x2="-130.12599" y2="111.07727" />
      <line id="245,286" x1="-147.27565" y1="98.59172" x2="-144.94360" y2="113.40933" />
      <line id="246,285" x1="-162.09326" y1="100.92378" x2="-159.76120" y2="115.74139" />
      <line id="247,284" x1="-176.91087" y1="103.25584" x2="-174.57881" y2="118.07346" />
      <line id="248,269" x1="-191.77773" y1="105.25002" x2="-190.12250" y2="120.15840" />
      <line id="249,268" x1="-206.68613" y1="106.90524" x2="-205.03090" y2="121.81363" />
      <line id="250,267" x1="-221.59451" y1="108.56047" x2="-219.93929" y2="123.46886" />
      <line id="308,512" x1="65.60682" y1="245.85895" x2="78.94747" y2="252.71657" />
      <line id="309,511" x1="58.74919" y1="259.19958" x2="72.08984" y2="266.05722" />
      <line id="310,510" x1="51.89157" y1="272.54025" x2="65.23222" y2="279.39786" />
      <line id="318,428" x1="4.85837" y1="274.81088" x2="16.18008" y2="284.65054" />
      <line id="319,427" x1="-4.98129" y1="286.13260" x2="6.34042" y2="295.97226" />
      <line id="320,426" x1="-14.82095" y1="297.45432" x2="-3.49924" y2="307.29398" />
      <line id="321,425" x1="-24.66061" y1="308.77603" x2="-13.33889" y2="318.61569" />
      <line id="322,424" x1="-34.50026" y1="320.09775" x2="-23.17855" y2="329.93738" />
      <line id="325,420" x1="-61.37948" y1="350.92752" x2="-50.08983" y2="360.80396" />
      <line id="326,419" x1="-71.25591" y1="362.21716" x2="-59.96626" y2="372.09360" />
      <line id="327,418" x1="-81.13233" y1="373.50684" x2="-69.84268" y2="383.38324" />
      <line id="340,412" x1="-138.26993" y1="440.32907" x2="-126.75838" y2="449.94595" />
      <line id="341,411" x1="-147.88681" y1="451.84064" x2="-136.37526" y2="461.45752" />
      <line id="342,410" x1="-157.50368" y1="463.35217" x2="-145.99214" y2="472.96906" />
      <line id="343,409" x1="-167.12056" y1="474.86371" x2="-155.60902" y2="484.48059" />
      <line id="344,408" x1="-176.73744" y1="486.37524" x2="-165.22589" y2="495.99213" />
      <line id="345,407" x1="-186.35432" y1="497.88678" x2="-174.84277" y2="507.50366" />
      <line id="346,406" x1="-195.97119" y1="509.39835" x2="-184.45966" y2="519.01526" />
      <line id="351,385" x1="-210.32507" y1="525.69885" x2="-199.32928" y2="535.90143" />
      <line id="353,383" x1="-228.36832" y1="545.14484" x2="-217.37253" y2="555.34741" />
      <line id="355,381" x1="-246.41156" y1="564.59082" x2="-235.41577" y2="574.79346" />
      <line id="356,380" x1="-256.61414" y1="575.58661" x2="-245.61836" y2="585.78918" />
      <line id="357,379" x1="-266.81674" y1="586.58240" x2="-255.82095" y2="596.78497" />
      <line id="358,378" x1="-277.01932" y1="597.57812" x2="-266.02356" y2="607.78076" />
      <line id="361,374" x1="-304.88678" y1="627.51764" x2="-293.92426" y2="637.75598" />
      <line id="362,373" x1="-315.12509" y1="638.48016" x2="-304.16254" y2="648.71851" />
      <line id="363,372" x1="-325.36337" y1="649.44275" x2="-314.40085" y2="659.68103" />
      <line id="433,474" x1="43.14532" y1="297.79877" x2="57.87004" y2="300.65930" />
      <line id="434,473" x1="40.28479" y1="312.52347" x2="55.00951" y2="315.38403" />
      <line id="435,472" x1="37.42425" y1="327.24820" x2="52.14897" y2="330.10873" />
      <line id="436,471" x1="34.56371" y1="341.97290" x2="49.28843" y2="344.83347" />
      <line id="437,470" x1="31.70317" y1="356.69763" x2="46.42789" y2="359.55817" />
      <line id="438,469" x1="28.84263" y1="371.42236" x2="43.56735" y2="374.28290" />
      <line id="442,468" x1="26.02675" y1="386.30463" x2="40.77868" y2="389.02139" />
      <line id="443,467" x1="23.31001" y1="401.05658" x2="38.06193" y2="403.77332" />
      <line id="447,463" x1="14.88126" y1="446.82471" x2="29.63319" y2="449.54144" />
      <line id="448,462" x1="12.16452" y1="461.57663" x2="26.91644" y2="464.29337" />
      <line id="449,461" x1="9.44777" y1="476.32855" x2="24.19970" y2="479.04529" />
      <line id="450,460" x1="6.73103" y1="491.08047" x2="21.48296" y2="493.79724" />
      <line id="514,541" x1="110.11959" y1="255.61411" x2="124.49564" y2="251.33284" />
      <line id="515,540" x1="114.40086" y1="269.99017" x2="128.77692" y2="265.70889" />
      <line id="516,539" x1="118.68214" y1="284.36621" x2="133.05818" y2="280.08493" />
      <line id="517,538" x1="122.96341" y1="298.74225" x2="137.33946" y2="294.46097" />
      <line id="523,534" x1="138.66853" y1="350.86978" x2="153.01643" y2="346.49509" />
      <line id="524,533" x1="143.04323" y1="365.21768" x2="157.39113" y2="360.84299" />
      <line id="525,532" x1="147.41792" y1="379.56558" x2="161.76581" y2="375.19089" />
      <line id="526,531" x1="151.79260" y1="393.91348" x2="166.14050" y2="389.53879" />
      <line id="550,852" x1="184.75568" y1="170.59381" x2="187.03954" y2="155.76869" />
      <line id="551,851" x1="199.58078" y1="172.87766" x2="201.86464" y2="158.05255" />
      <line id="552,849" x1="214.40216" y1="175.18562" x2="216.73422" y2="160.36801" />
      <line id="553,848" x1="229.21977" y1="177.51768" x2="231.55183" y2="162.70007" />
      <line id="558,844" x1="279.53369" y1="185.35431" x2="281.81754" y2="170.52921" />
      <line id="559,843" x1="294.35880" y1="187.63818" x2="296.64267" y2="172.81305" />
      <line id="560,842" x1="309.18393" y1="189.92203" x2="311.46777" y2="175.09692" />
      <line id="568,801" x1="427.63770" y1="214.71275" x2="431.49643" y2="200.21756" />
      <line id="569,800" x1="442.13290" y1="218.57147" x2="445.99161" y2="204.07629" />
      <line id="570,799" x1="456.62808" y1="222.43019" x2="460.48679" y2="207.93501" />
      <line id="571,798" x1="471.12326" y1="226.28891" x2="474.98196" y2="211.79373" />
      <line id="572,797" x1="485.61844" y1="230.14763" x2="489.47714" y2="215.65245" />
      <line id="575,733" x1="515.63318" y1="315.80887" x2="522.27295" y2="302.35849" />
      <line id="576,732" x1="529.08356" y1="322.44867" x2="535.72339" y2="308.99829" />
      <line id="577,731" x1="542.53394" y1="329.08847" x2="549.17377" y2="315.63806" />
      <line id="578,730" x1="555.98438" y1="335.72827" x2="562.62415" y2="322.27786" />
      <line id="579,729" x1="569.43475" y1="342.36807" x2="576.07452" y2="328.91766" />
      <line id="580,728" x1="582.88513" y1="349.00787" x2="589.52496" y2="335.55746" />
      <line id="581,727" x1="596.33551" y1="355.64767" x2="602.97534" y2="342.19727" />
      <line id="582,726" x1="609.78595" y1="362.28748" x2="616.42572" y2="348.83707" />
      <line id="583,724" x1="623.22552" y1="368.94913" x2="629.90900" y2="355.52039" />
      <line id="584,723" x1="636.65424" y1="375.63263" x2="643.33777" y2="362.20392" />
      <line id="589,603" x1="658.30603" y1="414.01776" x2="669.43359" y2="403.95908" />
      <line id="591,602" x1="668.41559" y1="425.16510" x2="679.51038" y2="415.07028" />
      <line id="592,601" x1="678.51038" y1="436.25989" x2="689.60516" y2="426.16507" />
      <line id="613,721" x1="686.49408" y1="379.28235" x2="691.97418" y2="365.31924" />
      <line id="614,720" x1="700.45715" y1="384.76248" x2="705.93726" y2="370.79938" />
      <line id="615,719" x1="714.42029" y1="390.24258" x2="719.90039" y2="376.27948" />
      <line id="616,718" x1="728.38336" y1="395.72272" x2="733.86346" y2="381.75958" />
      <line id="617,717" x1="742.34650" y1="401.20282" x2="747.82660" y2="387.23972" />
      <line id="618,716" x1="756.30957" y1="406.68292" x2="761.78973" y2="392.71982" />
      <line id="619,715" x1="770.27271" y1="412.16306" x2="775.75281" y2="398.19995" />
      <line id="630,710" x1="840.27295" y1="438.85880" x2="845.47955" y2="424.79144" />
      <line id="631,709" x1="854.34027" y1="444.06543" x2="859.54694" y2="429.99805" />
      <line id="633,708" x1="868.46191" y1="449.26602" x2="873.62274" y2="435.18179" />
      <line id="634,707" x1="882.54614" y1="454.42688" x2="887.70697" y2="440.34265" />
      <line id="637,706" x1="896.73877" y1="459.57516" x2="901.80792" y2="445.45764" />
      <line id="638,705" x1="910.85632" y1="464.64429" x2="915.92542" y2="450.52679" />
      <line id="639,704" x1="924.97382" y1="469.71344" x2="930.04291" y2="455.59595" />
      <line id="640,703" x1="939.09131" y1="474.78256" x2="944.16046" y2="460.66507" />
      <line id="641,700" x1="953.19226" y1="479.89758" x2="958.35309" y2="465.81335" />
      <line id="642,699" x1="967.27649" y1="485.05844" x2="972.43732" y2="470.97418" />
      <line id="643,698" x1="981.36072" y1="490.21930" x2="986.52155" y2="476.13507" />
      <line id="644,696" x1="995.43652" y1="495.40302" x2="1000.64319" y2="481.33566" />
      <line id="646,694" x1="1020.31464" y1="504.61093" x2="1025.52124" y2="490.54358" />
      <line id="651,673" x1="1073.81067" y1="547.74231" x2="1079.74182" y2="533.96472" />
      <line id="652,672" x1="1087.58813" y1="553.67352" x2="1093.51941" y2="539.89600" />
      <line id="653,671" x1="1101.36572" y1="559.60474" x2="1107.29688" y2="545.82727" />
      <line id="657,665" x1="1151.21240" y1="581.25256" x2="1157.23303" y2="567.51392" />
      <line id="658,664" x1="1164.95105" y1="587.27332" x2="1170.97180" y2="573.53467" />
      <line id="679,688" x1="1089.65027" y1="505.64825" x2="1093.60315" y2="491.17847" />
      <line id="680,687" x1="1104.12000" y1="509.60117" x2="1108.07288" y2="495.13141" />
      <line id="681,686" x1="1118.58984" y1="513.55408" x2="1122.54272" y2="499.08432" />
      <line id="740,757" x1="526.79248" y1="272.70087" x2="524.46039" y2="257.88324" />
      <line id="742,755" x1="552.99738" y1="268.57663" x2="550.66528" y2="253.75902" />
      <line id="769,786" x1="517.02618" y1="228.81897" x2="511.95706" y2="214.70148" />
      <line id="770,784" x1="531.15192" y1="223.77280" x2="526.12872" y2="209.63889" />
      <line id="771,783" x1="545.28583" y1="218.74960" x2="540.26263" y2="204.61569" />
      <line id="772,782" x1="559.41974" y1="213.72641" x2="554.39655" y2="199.59250" />
      <line id="773,781" x1="573.55365" y1="208.70322" x2="568.53046" y2="194.56931" />
      <line id="807,829" x1="425.00162" y1="163.26659" x2="416.43130" y2="150.95604" />
      <line id="808,828" x1="437.31216" y1="154.69627" x2="428.74185" y2="142.38573" />
      <line id="809,827" x1="449.62274" y1="146.12596" x2="441.05240" y2="133.81541" />
      <line id="810,826" x1="461.93329" y1="137.55565" x2="453.36298" y2="125.24509" />
      <line id="811,825" x1="474.24384" y1="128.98534" x2="465.67352" y2="116.67477" />
      <line id="812,824" x1="486.55438" y1="120.41502" x2="477.98407" y2="108.10446" />
      <line id="867,918" x1="173.45461" y1="129.02080" x2="160.13632" y2="122.11983" />
      <line id="868,917" x1="180.35558" y1="115.70251" x2="167.03729" y2="108.80154" />
      <line id="869,916" x1="187.25655" y1="102.38425" x2="173.93828" y2="95.48326" />
      <line id="870,915" x1="194.15753" y1="89.06596" x2="180.83925" y2="82.16499" />
      <line id="871,914" x1="201.05850" y1="75.74768" x2="187.74022" y2="68.84671" />
      <line id="872,913" x1="207.95947" y1="62.42941" x2="194.64120" y2="55.52843" />
      <line id="935,958" x1="131.49805" y1="113.18398" x2="116.61854" y2="111.28656" />
      <line id="936,957" x1="133.39546" y1="98.30447" x2="118.51596" y2="96.40706" />
      <line id="937,956" x1="135.29289" y1="83.42496" x2="120.41338" y2="81.52754" />
      <line id="938,955" x1="137.19031" y1="68.54546" x2="122.31080" y2="66.64804" />
      <line id="939,954" x1="139.08772" y1="53.66594" x2="124.20822" y2="51.76852" />
      <line id="940,953" x1="140.98515" y1="38.78644" x2="126.10564" y2="36.88901" />
      <line id="941,952" x1="142.88257" y1="23.90692" x2="128.00305" y2="22.00952" />
      <line id="942,951" x1="144.77998" y1="9.02740" x2="129.90048" y2="7.13000" />
      <line id="943,950" x1="146.67741" y1="-5.85208" x2="131.79790" y2="-7.74951" />
      <line id="944,949" x1="148.57483" y1="-20.73160" x2="133.69533" y2="-22.62903" />
    </g>
    <g style="font-family: SansSerif" transform="translate(-4.6, 4)" id="seq">
      <text x="94.857" y="80.747">A</text>
      <text x="94.491" y="95.742">A</text>
      <text x="94.125" y="110.738">A</text>
      <text x="86.627" y="110.555">C</text>
      <text x="85.458" y="95.601">C</text>
      <text x="84.288" y="80.646">C</text>
      <text x="83.119" y="65.692">U</text>
      <text x="81.949" y="50.738">U</text>
      <text x="93.234" y="39.912">U</text>
      <text x="94.869" y="24.360">G</text>
      <text x="86.082" y="11.425">A</text>
      <text x="71.022" y="7.214">U</text>
      <text x="56.800" y="13.715">U</text>
      <text x="50.131" y="27.859">U</text>
      <text x="54.164" y="42.968">U</text>
      <text x="66.995" y="51.907">G</text>
      <text x="68.164" y="66.861">G</text>
      <text x="69.334" y="81.816">G</text>
      <text x="70.504" y="96.770">G</text>
      <text x="71.673" y="111.724">G</text>
      <text x="56.370" y="134.722">U</text>
      <text x="51.355" y="158.383">U</text>
      <text x="38.389" y="150.841">A</text>
      <text x="25.423" y="143.299">G</text>
      <text x="12.457" y="135.756">A</text>
      <text x="-0.509" y="128.214">A</text>
      <text x="-13.475" y="120.672">A</text>
      <text x="-26.441" y="113.130">A</text>
      <text x="-32.192" y="106.201">U</text>
      <text x="-39.461" y="105.584">G</text>
      <text x="-52.452" y="98.084">C</text>
      <text x="-65.442" y="90.584">U</text>
      <text x="-64.282" y="73.080">U</text>
      <text x="-77.136" y="57.077">G</text>
      <text x="-100.362" y="53.327">G</text>
      <text x="-111.998" y="43.861">G</text>
      <text x="-113.759" y="28.383">A</text>
      <text x="-125.694" y="18.949">U</text>
      <text x="-140.438" y="20.723">U</text>
      <text x="-152.058" y="11.238">U</text>
      <text x="-163.663" y="1.734">U</text>
      <text x="-159.411" y="-8.703">U</text>
      <text x="-160.175" y="-21.023">U</text>
      <text x="-166.699" y="-32.754">A</text>
      <text x="-178.504" y="-41.183">A</text>
      <text x="-193.844" y="-43.957">U</text>
      <text x="-204.433" y="-54.581">A</text>
      <text x="-215.023" y="-65.205">C</text>
      <text x="-218.798" y="-73.380">A</text>
      <text x="-225.664" y="-75.846">U</text>
      <text x="-236.288" y="-86.436">G</text>
      <text x="-246.911" y="-97.025">C</text>
      <text x="-233.156" y="-115.974">U</text>
      <text x="-234.758" y="-144.603">A</text>
      <text x="-257.116" y="-170.273">G</text>
      <text x="-262.732" y="-184.181">U</text>
      <text x="-257.809" y="-199.451">A</text>
      <text x="-266.797" y="-212.739">A</text>
      <text x="-282.801" y="-213.854">A</text>
      <text x="-293.544" y="-201.939">A</text>
      <text x="-290.785" y="-186.135">A</text>
      <text x="-276.641" y="-178.565">A</text>
      <text x="-271.025" y="-164.656">C</text>
      <text x="-277.375" y="-160.666">A</text>
      <text x="-285.355" y="-173.367">C</text>
      <text x="-293.336" y="-186.068">A</text>
      <text x="-306.037" y="-178.087">U</text>
      <text x="-298.056" y="-165.387">A</text>
      <text x="-290.076" y="-152.686">G</text>
      <text x="-296.426" y="-148.695">G</text>
      <text x="-306.521" y="-159.790">U</text>
      <text x="-316.616" y="-170.885">G</text>
      <text x="-308.111" y="-179.605">A</text>
      <text x="-301.991" y="-191.026">G</text>
      <text x="-299.090" y="-204.454">U</text>
      <text x="-300.034" y="-218.943">A</text>
      <text x="-305.160" y="-233.363">A</text>
      <text x="-314.469" y="-246.485">A</text>
      <text x="-327.601" y="-257.086">U</text>
      <text x="-343.834" y="-264.053">U</text>
      <text x="-345.266" y="-279.809">U</text>
      <text x="-358.848" y="-285.922">G</text>
      <text x="-367.338" y="-298.288">U</text>
      <text x="-375.828" y="-310.654">A</text>
      <text x="-384.318" y="-323.020">A</text>
      <text x="-392.809" y="-335.386">U</text>
      <text x="-401.299" y="-347.752">U</text>
      <text x="-402.731" y="-363.508">A</text>
      <text x="-416.313" y="-369.622">U</text>
      <text x="-413.179" y="-385.112">U</text>
      <text x="-421.987" y="-398.235">U</text>
      <text x="-437.509" y="-401.205">A</text>
      <text x="-450.538" y="-392.259">C</text>
      <text x="-453.344" y="-376.706">A</text>
      <text x="-444.261" y="-363.772">A</text>
      <text x="-428.679" y="-361.131">A</text>
      <text x="-427.854" y="-346.260">A</text>
      <text x="-413.665" y="-339.262">A</text>
      <text x="-405.175" y="-326.896">G</text>
      <text x="-396.684" y="-314.530">U</text>
      <text x="-388.194" y="-302.164">U</text>
      <text x="-379.704" y="-289.798">A</text>
      <text x="-371.214" y="-277.432">C</text>
      <text x="-370.389" y="-262.560">C</text>
      <text x="-356.200" y="-255.563">A</text>
      <text x="-361.932" y="-250.726">G</text>
      <text x="-376.041" y="-255.819">G</text>
      <text x="-373.396" y="-241.053">A</text>
      <text x="-379.129" y="-236.217">U</text>
      <text x="-389.889" y="-246.667">A</text>
      <text x="-394.399" y="-261.832">A</text>
      <text x="-408.920" y="-265.148">G</text>
      <text x="-401.703" y="-278.408">U</text>
      <text x="-398.333" y="-293.124">U</text>
      <text x="-399.060" y="-308.203">A</text>
      <text x="-403.829" y="-322.526">A</text>
      <text x="-412.286" y="-335.031">U</text>
      <text x="-423.804" y="-344.790">A</text>
      <text x="-437.529" y="-351.078">U</text>
      <text x="-452.441" y="-353.429">A</text>
      <text x="-467.434" y="-351.669">A</text>
      <text x="-481.396" y="-345.927">U</text>
      <text x="-493.291" y="-336.631">A</text>
      <text x="-502.235" y="-324.469">U</text>
      <text x="-507.566" y="-310.345">U</text>
      <text x="-508.887" y="-295.307">U</text>
      <text x="-506.100" y="-280.470">U</text>
      <text x="-499.413" y="-266.935">G</text>
      <text x="-489.321" y="-255.707">A</text>
      <text x="-476.574" y="-247.620">U</text>
      <text x="-462.117" y="-243.272">U</text>
      <text x="-447.024" y="-242.987">U</text>
      <text x="-432.413" y="-246.786">U</text>
      <text x="-419.370" y="-254.388">C</text>
      <text x="-415.630" y="-239.970">C</text>
      <text x="-400.340" y="-235.906">U</text>
      <text x="-389.579" y="-225.456">A</text>
      <text x="-394.387" y="-219.700">U</text>
      <text x="-405.899" y="-229.317">G</text>
      <text x="-420.677" y="-231.890">A</text>
      <text x="-415.516" y="-217.806">C</text>
      <text x="-404.004" y="-208.189">A</text>
      <text x="-408.813" y="-202.433">A</text>
      <text x="-421.011" y="-211.163">C</text>
      <text x="-430.372" y="-225.298">A</text>
      <text x="-446.546" y="-220.215">A</text>
      <text x="-446.140" y="-203.266">G</text>
      <text x="-429.740" y="-198.965">G</text>
      <text x="-417.542" y="-190.235">U</text>
      <text x="-407.802" y="-170.161">U</text>
      <text x="-392.729" y="-155.569">A</text>
      <text x="-374.770" y="-147.598">A</text>
      <text x="-356.485" y="-146.418">C</text>
      <text x="-340.200" y="-151.300">C</text>
      <text x="-327.711" y="-160.790">C</text>
      <text x="-317.616" y="-149.695">A</text>
      <text x="-307.521" y="-138.601">C</text>
      <text x="-312.004" y="-132.588">A</text>
      <text x="-326.901" y="-134.340">U</text>
      <text x="-320.970" y="-120.563">U</text>
      <text x="-325.453" y="-114.550">U</text>
      <text x="-338.968" y="-121.058">U</text>
      <text x="-336.500" y="-135.961">U</text>
      <text x="-338.332" y="-150.955">A</text>
      <text x="-344.315" y="-164.825">C</text>
      <text x="-353.965" y="-176.446">U</text>
      <text x="-366.499" y="-184.877">G</text>
      <text x="-380.900" y="-189.434">A</text>
      <text x="-396.003" y="-189.748">A</text>
      <text x="-410.581" y="-185.793">A</text>
      <text x="-423.454" y="-177.889">C</text>
      <text x="-433.578" y="-166.679">A</text>
      <text x="-440.132" y="-153.069">A</text>
      <text x="-442.585" y="-138.164">A</text>
      <text x="-440.738" y="-123.172">G</text>
      <text x="-434.741" y="-109.308">A</text>
      <text x="-425.079" y="-97.696">A</text>
      <text x="-412.537" y="-89.277">U</text>
      <text x="-398.131" y="-84.735">U</text>
      <text x="-383.028" y="-84.436">A</text>
      <text x="-368.454" y="-88.406">C</text>
      <text x="-355.589" y="-96.323">A</text>
      <text x="-345.476" y="-107.544">A</text>
      <text x="-331.962" y="-101.035">A</text>
      <text x="-321.181" y="-85.794">C</text>
      <text x="-307.108" y="-75.837">A</text>
      <text x="-291.873" y="-71.579">G</text>
      <text x="-277.503" y="-72.669">C</text>
      <text x="-265.670" y="-78.099">A</text>
      <text x="-257.501" y="-86.401">G</text>
      <text x="-246.877" y="-75.812">C</text>
      <text x="-236.253" y="-65.222">A</text>
      <text x="-225.646" y="-54.616">G</text>
      <text x="-215.057" y="-43.992">U</text>
      <text x="-204.468" y="-33.368">A</text>
      <text x="-207.897" y="-26.698">U</text>
      <text x="-221.237" y="-33.555">A</text>
      <text x="-234.578" y="-40.413">G</text>
      <text x="-247.919" y="-47.270">A</text>
      <text x="-254.776" y="-33.930">A</text>
      <text x="-241.435" y="-27.072">U</text>
      <text x="-228.095" y="-20.215">A</text>
      <text x="-214.754" y="-13.357">U</text>
      <text x="-218.183" y="-6.687">U</text>
      <text x="-232.985" y="-9.115">G</text>
      <text x="-247.787" y="-11.544">U</text>
      <text x="-262.589" y="-13.972">A</text>
      <text x="-268.316" y="-23.030">C</text>
      <text x="-277.856" y="-27.415">A</text>
      <text x="-288.028" y="-25.927">A</text>
      <text x="-295.584" y="-19.280">U</text>
      <text x="-310.401" y="-21.612">U</text>
      <text x="-325.219" y="-23.945">A</text>
      <text x="-340.037" y="-26.277">A</text>
      <text x="-354.854" y="-28.609">C</text>
      <text x="-367.262" y="-39.332">U</text>
      <text x="-382.661" y="-33.693">A</text>
      <text x="-385.211" y="-17.493">U</text>
      <text x="-372.288" y="-7.397">A</text>
      <text x="-357.186" y="-13.791">G</text>
      <text x="-342.369" y="-11.459">U</text>
      <text x="-327.551" y="-9.127">U</text>
      <text x="-312.733" y="-6.795">A</text>
      <text x="-297.916" y="-4.463">G</text>
      <text x="-283.661" y="8.708">A</text>
      <text x="-265.018" y="0.830">U</text>
      <text x="-250.216" y="3.259">A</text>
      <text x="-235.413" y="5.687">C</text>
      <text x="-220.611" y="8.115">A</text>
      <text x="-195.243" y="22.457">G</text>
      <text x="-173.167" y="13.338">A</text>
      <text x="-161.562" y="22.843">A</text>
      <text x="-158.418" y="29.425">A</text>
      <text x="-149.904" y="32.359">A</text>
      <text x="-148.641" y="47.155">C</text>
      <text x="-136.976" y="56.921">A</text>
      <text x="-121.464" y="55.496">C</text>
      <text x="-109.829" y="64.962">C</text>
      <text x="-111.782" y="72.204">A</text>
      <text x="-126.264" y="68.298">C</text>
      <text x="-130.170" y="82.781">A</text>
      <text x="-115.688" y="86.686">A</text>
      <text x="-117.640" y="93.928">A</text>
      <text x="-132.458" y="96.260">A</text>
      <text x="-147.276" y="98.592">A</text>
      <text x="-162.093" y="100.924">U</text>
      <text x="-176.911" y="103.256">U</text>
      <text x="-191.778" y="105.250">G</text>
      <text x="-206.686" y="106.905">U</text>
      <text x="-221.595" y="108.560">C</text>
      <text x="-228.297" y="94.964">C</text>
      <text x="-239.247" y="84.483">U</text>
      <text x="-253.124" y="78.381">A</text>
      <text x="-268.250" y="77.397">U</text>
      <text x="-282.800" y="81.649">C</text>
      <text x="-295.016" y="90.623">A</text>
      <text x="-303.424" y="103.235">G</text>
      <text x="-307.008" y="117.964">G</text>
      <text x="-305.336" y="133.030">U</text>
      <text x="-298.608" y="146.614">G</text>
      <text x="-287.638" y="157.075">C</text>
      <text x="-273.751" y="163.151">C</text>
      <text x="-258.623" y="164.107">A</text>
      <text x="-244.081" y="159.829">G</text>
      <text x="-231.881" y="150.832">C</text>
      <text x="-223.496" y="138.204">A</text>
      <text x="-219.939" y="123.469">G</text>
      <text x="-205.031" y="121.814">A</text>
      <text x="-190.122" y="120.158">C</text>
      <text x="-203.035" y="127.792">G</text>
      <text x="-212.056" y="139.776">C</text>
      <text x="-215.821" y="154.296">G</text>
      <text x="-213.759" y="169.154">G</text>
      <text x="-206.184" y="182.100">U</text>
      <text x="-194.240" y="191.176">U</text>
      <text x="-179.738" y="195.006">A</text>
      <text x="-164.871" y="193.011">U</text>
      <text x="-151.890" y="185.494">A</text>
      <text x="-142.761" y="173.592">C</text>
      <text x="-138.866" y="159.107">C</text>
      <text x="-140.793" y="144.231">U</text>
      <text x="-148.252" y="131.217">G</text>
      <text x="-160.113" y="122.034">A</text>
      <text x="-174.579" y="118.073">G</text>
      <text x="-159.761" y="115.741">A</text>
      <text x="-144.944" y="113.409">U</text>
      <text x="-130.126" y="111.077">U</text>
      <text x="-115.308" y="108.745">U</text>
      <text x="-90.240" y="115.403">A</text>
      <text x="-72.942" y="103.575">A</text>
      <text x="-59.952" y="111.075">G</text>
      <text x="-46.961" y="118.575">U</text>
      <text x="-33.983" y="126.096">U</text>
      <text x="-21.017" y="133.638">U</text>
      <text x="-8.051" y="141.180">U</text>
      <text x="4.915" y="148.722">U</text>
      <text x="17.881" y="156.265">C</text>
      <text x="30.847" y="163.807">U</text>
      <text x="43.812" y="171.349">A</text>
      <text x="40.810" y="180.191">A</text>
      <text x="39.191" y="189.387">U</text>
      <text x="38.991" y="198.722">A</text>
      <text x="40.216" y="207.979">A</text>
      <text x="42.838" y="216.941">A</text>
      <text x="46.794" y="225.399">A</text>
      <text x="51.993" y="233.155">A</text>
      <text x="58.313" y="240.029">U</text>
      <text x="65.607" y="245.859">G</text>
      <text x="58.749" y="259.200">G</text>
      <text x="51.892" y="272.540">C</text>
      <text x="55.826" y="258.065">A</text>
      <text x="51.782" y="243.621">C</text>
      <text x="40.903" y="233.294">A</text>
      <text x="26.267" y="230.006">A</text>
      <text x="12.017" y="234.688">A</text>
      <text x="2.183" y="246.014">G</text>
      <text x="-0.452" y="260.781">A</text>
      <text x="4.858" y="274.811">A</text>
      <text x="-4.981" y="286.133">U</text>
      <text x="-14.821" y="297.454">G</text>
      <text x="-24.661" y="308.776">U</text>
      <text x="-34.500" y="320.098">U</text>
      <text x="-52.029" y="321.039">A</text>
      <text x="-63.184" y="334.150">A</text>
      <text x="-61.379" y="350.928">G</text>
      <text x="-71.256" y="362.217">A</text>
      <text x="-81.132" y="373.507">A</text>
      <text x="-89.939" y="369.393">A</text>
      <text x="-99.415" y="367.278">A</text>
      <text x="-109.114" y="367.256">A</text>
      <text x="-118.580" y="369.324">U</text>
      <text x="-127.366" y="373.381">U</text>
      <text x="-135.063" y="379.230">U</text>
      <text x="-141.311" y="386.594">A</text>
      <text x="-145.818" y="395.123">U</text>
      <text x="-148.377" y="404.412">A</text>
      <text x="-148.872" y="414.025">A</text>
      <text x="-147.284" y="423.508">A</text>
      <text x="-143.692" y="432.415">A</text>
      <text x="-138.270" y="440.329">A</text>
      <text x="-147.887" y="451.841">A</text>
      <text x="-157.504" y="463.352">G</text>
      <text x="-167.121" y="474.864">A</text>
      <text x="-176.737" y="486.375">A</text>
      <text x="-186.354" y="497.887">G</text>
      <text x="-195.971" y="509.398">U</text>
      <text x="-201.896" y="510.392">A</text>
      <text x="-206.625" y="513.241">G</text>
      <text x="-209.667" y="517.254">A</text>
      <text x="-210.852" y="521.653">A</text>
      <text x="-210.325" y="525.699">G</text>
      <text x="-225.383" y="530.552">C</text>
      <text x="-228.368" y="545.145">U</text>
      <text x="-243.427" y="549.998">U</text>
      <text x="-246.412" y="564.591">U</text>
      <text x="-256.614" y="575.587">A</text>
      <text x="-266.817" y="586.582">C</text>
      <text x="-277.019" y="597.578">G</text>
      <text x="-294.569" y="597.949">A</text>
      <text x="-306.145" y="610.690">A</text>
      <text x="-304.887" y="627.518">A</text>
      <text x="-315.125" y="638.480">A</text>
      <text x="-325.363" y="649.443">G</text>
      <text x="-340.746" y="647.406">A</text>
      <text x="-354.372" y="654.830">U</text>
      <text x="-361.002" y="668.860">A</text>
      <text x="-358.085" y="684.101">A</text>
      <text x="-346.745" y="694.692">A</text>
      <text x="-331.341" y="696.561">A</text>
      <text x="-317.796" y="688.990">U</text>
      <text x="-311.320" y="674.889">A</text>
      <text x="-314.401" y="659.681">U</text>
      <text x="-304.163" y="648.719">U</text>
      <text x="-293.924" y="637.756">U</text>
      <text x="-281.187" y="639.132">C</text>
      <text x="-269.794" y="632.860">G</text>
      <text x="-263.971" y="621.015">A</text>
      <text x="-266.024" y="607.781">U</text>
      <text x="-255.821" y="596.785">G</text>
      <text x="-245.618" y="585.789">U</text>
      <text x="-235.416" y="574.793">A</text>
      <text x="-221.087" y="570.726">U</text>
      <text x="-217.373" y="555.347">A</text>
      <text x="-203.044" y="551.280">A</text>
      <text x="-199.329" y="535.901">C</text>
      <text x="-204.783" y="549.875">U</text>
      <text x="-206.176" y="564.810">G</text>
      <text x="-203.399" y="579.551">A</text>
      <text x="-196.667" y="592.955">A</text>
      <text x="-186.502" y="603.986">U</text>
      <text x="-173.691" y="611.788">A</text>
      <text x="-159.226" y="615.758">C</text>
      <text x="-144.227" y="615.588">C</text>
      <text x="-129.855" y="611.292">U</text>
      <text x="-117.224" y="603.201">C</text>
      <text x="-107.312" y="591.944">U</text>
      <text x="-100.885" y="578.390">A</text>
      <text x="-98.442" y="563.590">C</text>
      <text x="-100.173" y="548.690">C</text>
      <text x="-105.942" y="534.844">A</text>
      <text x="-115.303" y="523.124">A</text>
      <text x="-127.532" y="514.437">A</text>
      <text x="-141.681" y="509.456">A</text>
      <text x="-156.654" y="508.567">U</text>
      <text x="-171.293" y="511.839">A</text>
      <text x="-184.460" y="519.015">A</text>
      <text x="-174.843" y="507.504">C</text>
      <text x="-165.226" y="495.992">U</text>
      <text x="-155.609" y="484.481">U</text>
      <text x="-145.992" y="472.969">C</text>
      <text x="-136.375" y="461.458">U</text>
      <text x="-126.758" y="449.946">U</text>
      <text x="-107.337" y="455.928">A</text>
      <text x="-87.242" y="452.591">U</text>
      <text x="-70.719" y="440.595">U</text>
      <text x="-61.278" y="422.436">A</text>
      <text x="-60.948" y="401.924">A</text>
      <text x="-69.843" y="383.383">U</text>
      <text x="-59.966" y="372.094">U</text>
      <text x="-50.090" y="360.804">U</text>
      <text x="-37.315" y="361.765">U</text>
      <text x="-26.131" y="355.126">G</text>
      <text x="-20.697" y="343.098">A</text>
      <text x="-23.179" y="329.937">A</text>
      <text x="-13.339" y="318.616">A</text>
      <text x="-3.499" y="307.294">C</text>
      <text x="6.340" y="295.972">A</text>
      <text x="16.180" y="284.651">U</text>
      <text x="22.921" y="287.938">U</text>
      <text x="16.348" y="301.420">A</text>
      <text x="29.830" y="307.994">A</text>
      <text x="36.404" y="294.512">A</text>
      <text x="43.145" y="297.799">U</text>
      <text x="40.285" y="312.523">G</text>
      <text x="37.424" y="327.248">A</text>
      <text x="34.564" y="341.973">U</text>
      <text x="31.703" y="356.698">G</text>
      <text x="28.843" y="371.422">G</text>
      <text x="25.590" y="375.181">A</text>
      <text x="24.164" y="379.384">A</text>
      <text x="24.440" y="383.289">A</text>
      <text x="26.027" y="386.305">G</text>
      <text x="23.310" y="401.057">U</text>
      <text x="9.471" y="407.823">A</text>
      <text x="2.352" y="421.283">A</text>
      <text x="4.499" y="436.178">A</text>
      <text x="14.881" y="446.825">U</text>
      <text x="12.165" y="461.577">A</text>
      <text x="9.448" y="476.329">G</text>
      <text x="6.731" y="491.080">G</text>
      <text x="-7.582" y="496.837">A</text>
      <text x="-16.492" y="509.432">U</text>
      <text x="-17.155" y="524.845">U</text>
      <text x="-9.361" y="538.158">A</text>
      <text x="4.404" y="545.124">G</text>
      <text x="19.748" y="543.519">A</text>
      <text x="31.774" y="533.856">U</text>
      <text x="36.645" y="519.217">A</text>
      <text x="32.806" y="504.275">C</text>
      <text x="21.483" y="493.797">C</text>
      <text x="24.200" y="479.045">C</text>
      <text x="26.916" y="464.293">U</text>
      <text x="29.633" y="449.541">A</text>
      <text x="43.127" y="443.291">G</text>
      <text x="50.439" y="430.139">U</text>
      <text x="48.583" y="415.026">A</text>
      <text x="38.062" y="403.773">A</text>
      <text x="40.779" y="389.021">C</text>
      <text x="43.567" y="374.283">C</text>
      <text x="46.428" y="359.558">C</text>
      <text x="49.288" y="344.833">A</text>
      <text x="52.149" y="330.109">U</text>
      <text x="55.010" y="315.384">C</text>
      <text x="57.870" y="300.659">A</text>
      <text x="56.019" y="315.545">C</text>
      <text x="56.676" y="330.530">C</text>
      <text x="59.822" y="345.196">U</text>
      <text x="65.371" y="359.133">A</text>
      <text x="73.165" y="371.948">A</text>
      <text x="82.988" y="383.285">A</text>
      <text x="94.563" y="392.825">U</text>
      <text x="107.568" y="400.300">A</text>
      <text x="121.637" y="405.503">A</text>
      <text x="136.376" y="408.287">A</text>
      <text x="151.373" y="408.573">A</text>
      <text x="166.208" y="406.355">A</text>
      <text x="180.466" y="401.694">U</text>
      <text x="193.746" y="394.721">G</text>
      <text x="205.678" y="385.631">U</text>
      <text x="215.927" y="374.678">U</text>
      <text x="224.206" y="362.169">C</text>
      <text x="230.283" y="348.455">U</text>
      <text x="233.988" y="333.920">U</text>
      <text x="235.217" y="318.971">U</text>
      <text x="233.936" y="304.025">A</text>
      <text x="230.181" y="289.503">A</text>
      <text x="224.056" y="275.810">A</text>
      <text x="215.734" y="263.331">A</text>
      <text x="205.447" y="252.413">A</text>
      <text x="193.484" y="243.365">A</text>
      <text x="180.180" y="236.437">G</text>
      <text x="165.906" y="231.826">A</text>
      <text x="151.063" y="229.659">A</text>
      <text x="136.067" y="229.997">A</text>
      <text x="121.338" y="232.832">U</text>
      <text x="107.287" y="238.083">C</text>
      <text x="94.309" y="245.604">U</text>
      <text x="82.766" y="255.184">U</text>
      <text x="72.983" y="266.554">C</text>
      <text x="65.232" y="279.398">G</text>
      <text x="72.090" y="266.057">C</text>
      <text x="78.947" y="252.717">C</text>
      <text x="94.345" y="256.196">U</text>
      <text x="110.120" y="255.614">G</text>
      <text x="114.401" y="269.990">A</text>
      <text x="118.682" y="284.366">G</text>
      <text x="122.963" y="298.742">U</text>
      <text x="114.218" y="307.469">A</text>
      <text x="109.990" y="319.002">U</text>
      <text x="111.010" y="331.171">U</text>
      <text x="117.028" y="341.714">A</text>
      <text x="126.870" y="348.698">U</text>
      <text x="138.669" y="350.870">A</text>
      <text x="143.043" y="365.218">A</text>
      <text x="147.418" y="379.566">U</text>
      <text x="151.793" y="393.913">C</text>
      <text x="147.566" y="409.759">U</text>
      <text x="159.365" y="421.148">A</text>
      <text x="175.051" y="416.365">C</text>
      <text x="178.488" y="400.331">U</text>
      <text x="166.141" y="389.539">G</text>
      <text x="161.766" y="375.191">A</text>
      <text x="157.391" y="360.843">U</text>
      <text x="153.016" y="346.495">U</text>
      <text x="164.314" y="332.794">G</text>
      <text x="165.034" y="314.891">A</text>
      <text x="154.692" y="300.065">A</text>
      <text x="137.339" y="294.461">A</text>
      <text x="133.058" y="280.085">U</text>
      <text x="128.777" y="265.709">U</text>
      <text x="124.496" y="251.333">C</text>
      <text x="134.753" y="249.246">A</text>
      <text x="144.930" y="245.254">A</text>
      <text x="154.673" y="239.338">A</text>
      <text x="163.618" y="231.542">A</text>
      <text x="171.409" y="221.981">A</text>
      <text x="177.707" y="210.833">A</text>
      <text x="182.201" y="198.343">U</text>
      <text x="184.623" y="184.812">C</text>
      <text x="184.756" y="170.594">U</text>
      <text x="199.581" y="172.878">G</text>
      <text x="214.402" y="175.186">A</text>
      <text x="229.220" y="177.518">C</text>
      <text x="234.519" y="190.164">U</text>
      <text x="245.270" y="198.500">G</text>
      <text x="258.624" y="200.452">U</text>
      <text x="271.109" y="195.621">U</text>
      <text x="279.534" y="185.354">C</text>
      <text x="294.359" y="187.638">G</text>
      <text x="309.184" y="189.922">U</text>
      <text x="312.296" y="211.086">A</text>
      <text x="322.443" y="229.896">C</text>
      <text x="338.392" y="244.094">A</text>
      <text x="358.213" y="251.980">C</text>
      <text x="379.516" y="252.619">C</text>
      <text x="399.736" y="245.947">A</text>
      <text x="416.445" y="232.779">C</text>
      <text x="427.638" y="214.713">U</text>
      <text x="442.133" y="218.571">U</text>
      <text x="456.628" y="222.430">A</text>
      <text x="471.123" y="226.289">G</text>
      <text x="485.618" y="230.148">A</text>
      <text x="471.245" y="253.461">G</text>
      <text x="479.563" y="288.134">G</text>
      <text x="515.633" y="315.809">A</text>
      <text x="529.084" y="322.449">U</text>
      <text x="542.534" y="329.088">U</text>
      <text x="555.984" y="335.728">G</text>
      <text x="569.435" y="342.368">U</text>
      <text x="582.885" y="349.008">G</text>
      <text x="596.336" y="355.648">U</text>
      <text x="609.786" y="362.287">A</text>
      <text x="623.226" y="368.949">G</text>
      <text x="636.654" y="375.633">U</text>
      <text x="634.308" y="383.548">U</text>
      <text x="635.069" y="392.671">U</text>
      <text x="639.431" y="401.740">A</text>
      <text x="647.372" y="409.322">A</text>
      <text x="658.306" y="414.018">U</text>
      <text x="661.678" y="422.367">G</text>
      <text x="668.416" y="425.165">C</text>
      <text x="678.510" y="436.260">G</text>
      <text x="675.232" y="451.427">A</text>
      <text x="681.524" y="465.610">U</text>
      <text x="694.969" y="473.357">A</text>
      <text x="710.396" y="471.688">A</text>
      <text x="721.874" y="461.246">U</text>
      <text x="724.988" y="446.044">C</text>
      <text x="718.541" y="431.930">C</text>
      <text x="705.013" y="424.329">G</text>
      <text x="689.605" y="426.165">C</text>
      <text x="679.510" y="415.070">G</text>
      <text x="669.434" y="403.959">A</text>
      <text x="673.699" y="397.790">A</text>
      <text x="686.037" y="406.320">U</text>
      <text x="698.375" y="414.850">C</text>
      <text x="710.714" y="423.381">A</text>
      <text x="725.664" y="424.599">C</text>
      <text x="719.244" y="411.042">C</text>
      <text x="706.906" y="402.512">U</text>
      <text x="694.567" y="393.982">U</text>
      <text x="682.229" y="385.452">A</text>
      <text x="686.494" y="379.282">C</text>
      <text x="700.457" y="384.762">C</text>
      <text x="714.420" y="390.243">U</text>
      <text x="728.383" y="395.723">U</text>
      <text x="742.346" y="401.203">A</text>
      <text x="756.310" y="406.683">A</text>
      <text x="770.273" y="412.163">U</text>
      <text x="769.835" y="421.798">U</text>
      <text x="771.805" y="431.222">A</text>
      <text x="776.049" y="439.845">G</text>
      <text x="782.294" y="447.128">A</text>
      <text x="790.141" y="452.620">A</text>
      <text x="799.091" y="455.981">A</text>
      <text x="808.580" y="457.008">U</text>
      <text x="818.009" y="455.645">A</text>
      <text x="826.787" y="451.986">C</text>
      <text x="834.365" y="446.268">A</text>
      <text x="840.273" y="438.859">A</text>
      <text x="854.340" y="444.065">G</text>
      <text x="861.195" y="449.905">U</text>
      <text x="868.462" y="449.266">G</text>
      <text x="882.546" y="454.427">C</text>
      <text x="886.932" y="459.099">U</text>
      <text x="892.217" y="460.708">G</text>
      <text x="896.739" y="459.575">C</text>
      <text x="910.856" y="464.644">A</text>
      <text x="924.974" y="469.713">U</text>
      <text x="939.091" y="474.783">G</text>
      <text x="953.192" y="479.898">G</text>
      <text x="967.276" y="485.058">C</text>
      <text x="981.361" y="490.219">C</text>
      <text x="995.437" y="495.403">G</text>
      <text x="1005.693" y="507.449">U</text>
      <text x="1020.315" y="504.611">C</text>
      <text x="1019.559" y="519.584">U</text>
      <text x="1025.684" y="534.287">U</text>
      <text x="1038.229" y="545.557">C</text>
      <text x="1055.294" y="550.621">A</text>
      <text x="1073.811" y="547.742">G</text>
      <text x="1087.588" y="553.674">U</text>
      <text x="1101.366" y="559.605">U</text>
      <text x="1104.905" y="577.493">U</text>
      <text x="1118.421" y="589.496">G</text>
      <text x="1136.285" y="590.872">U</text>
      <text x="1151.212" y="581.253">A</text>
      <text x="1164.951" y="587.273">U</text>
      <text x="1172.104" y="601.634">G</text>
      <text x="1187.820" y="604.854">U</text>
      <text x="1200.044" y="594.464">A</text>
      <text x="1199.398" y="578.434">A</text>
      <text x="1186.378" y="569.061">A</text>
      <text x="1170.972" y="573.535">A</text>
      <text x="1157.233" y="567.514">U</text>
      <text x="1156.454" y="555.543">U</text>
      <text x="1150.668" y="544.952">A</text>
      <text x="1140.900" y="537.743">A</text>
      <text x="1128.934" y="535.309">C</text>
      <text x="1116.986" y="538.161">A</text>
      <text x="1107.297" y="545.827">G</text>
      <text x="1093.519" y="539.896">A</text>
      <text x="1079.742" y="533.965">C</text>
      <text x="1082.219" y="526.886">U</text>
      <text x="1096.377" y="531.840">A</text>
      <text x="1111.116" y="529.051">A</text>
      <text x="1101.331" y="517.682">A</text>
      <text x="1087.173" y="512.727">C</text>
      <text x="1089.650" y="505.648">U</text>
      <text x="1104.120" y="509.601">U</text>
      <text x="1118.590" y="513.554">U</text>
      <text x="1129.738" y="525.581">A</text>
      <text x="1145.666" y="521.676">U</text>
      <text x="1149.987" y="505.857">A</text>
      <text x="1138.257" y="494.396">A</text>
      <text x="1122.543" y="499.084">A</text>
      <text x="1108.073" y="495.131">A</text>
      <text x="1093.603" y="491.178">A</text>
      <text x="1083.567" y="479.407">A</text>
      <text x="1070.569" y="472.276">U</text>
      <text x="1056.520" y="470.319">G</text>
      <text x="1043.319" y="473.349">A</text>
      <text x="1032.599" y="480.530">A</text>
      <text x="1025.521" y="490.544">G</text>
      <text x="1016.271" y="478.870">U</text>
      <text x="1000.643" y="481.336">C</text>
      <text x="995.526" y="476.136">A</text>
      <text x="986.522" y="476.135">G</text>
      <text x="972.437" y="470.974">G</text>
      <text x="958.353" y="465.813">U</text>
      <text x="955.609" y="462.045">U</text>
      <text x="950.522" y="459.891">U</text>
      <text x="944.160" y="460.665">U</text>
      <text x="930.043" y="455.596">A</text>
      <text x="915.925" y="450.527">U</text>
      <text x="901.808" y="445.458">G</text>
      <text x="887.707" y="440.343">G</text>
      <text x="873.623" y="435.182">C</text>
      <text x="859.547" y="429.998">C</text>
      <text x="845.480" y="424.791">U</text>
      <text x="843.221" y="404.541">U</text>
      <text x="830.739" y="388.336">U</text>
      <text x="811.588" y="380.925">A</text>
      <text x="791.293" y="384.535">U</text>
      <text x="775.753" y="398.200">A</text>
      <text x="761.790" y="392.720">U</text>
      <text x="747.827" y="387.240">U</text>
      <text x="733.863" y="381.760">G</text>
      <text x="719.900" y="376.279">A</text>
      <text x="705.937" y="370.799">G</text>
      <text x="691.974" y="365.319">G</text>
      <text x="664.785" y="349.882">G</text>
      <text x="643.338" y="362.204">A</text>
      <text x="629.909" y="355.520">U</text>
      <text x="625.378" y="349.802">U</text>
      <text x="616.426" y="348.837">U</text>
      <text x="602.975" y="342.197">A</text>
      <text x="589.525" y="335.557">U</text>
      <text x="576.075" y="328.918">G</text>
      <text x="562.624" y="322.278">C</text>
      <text x="549.174" y="315.638">A</text>
      <text x="535.723" y="308.998">A</text>
      <text x="522.273" y="302.358">U</text>
      <text x="523.403" y="294.944">A</text>
      <text x="538.232" y="297.204">C</text>
      <text x="553.060" y="299.463">A</text>
      <text x="555.320" y="284.634">U</text>
      <text x="540.491" y="282.375">U</text>
      <text x="525.663" y="280.115">A</text>
      <text x="526.792" y="272.701">U</text>
      <text x="541.628" y="278.199">U</text>
      <text x="552.997" y="268.577">U</text>
      <text x="561.635" y="281.161">A</text>
      <text x="574.881" y="288.743">U</text>
      <text x="590.106" y="289.819">A</text>
      <text x="604.287" y="284.175">A</text>
      <text x="614.609" y="272.930">C</text>
      <text x="619.021" y="258.319">A</text>
      <text x="616.648" y="243.241">A</text>
      <text x="607.961" y="230.691">A</text>
      <text x="594.685" y="223.161">A</text>
      <text x="579.455" y="222.145">C</text>
      <text x="565.297" y="227.845">A</text>
      <text x="555.020" y="239.130">A</text>
      <text x="550.665" y="253.759">A</text>
      <text x="536.890" y="248.095">U</text>
      <text x="524.460" y="257.883">A</text>
      <text x="522.602" y="250.617">A</text>
      <text x="537.134" y="246.900">A</text>
      <text x="551.666" y="243.183">A</text>
      <text x="566.198" y="239.466">U</text>
      <text x="580.730" y="235.749">U</text>
      <text x="591.457" y="225.264">U</text>
      <text x="577.013" y="221.217">C</text>
      <text x="562.481" y="224.934">G</text>
      <text x="547.949" y="228.651">G</text>
      <text x="533.417" y="232.368">A</text>
      <text x="518.885" y="236.085">U</text>
      <text x="517.026" y="228.819">A</text>
      <text x="531.152" y="223.773">A</text>
      <text x="545.286" y="218.750">A</text>
      <text x="559.420" y="213.726">A</text>
      <text x="573.554" y="208.703">U</text>
      <text x="586.944" y="216.780">U</text>
      <text x="602.385" y="214.309">U</text>
      <text x="612.586" y="202.457">G</text>
      <text x="612.731" y="186.820">A</text>
      <text x="602.750" y="174.782">A</text>
      <text x="587.358" y="172.026">A</text>
      <text x="573.820" y="179.854">U</text>
      <text x="568.530" y="194.569">A</text>
      <text x="554.397" y="199.592">U</text>
      <text x="540.263" y="204.616">U</text>
      <text x="526.129" y="209.639">U</text>
      <text x="518.868" y="208.929">A</text>
      <text x="511.957" y="214.701">U</text>
      <text x="523.669" y="205.330">U</text>
      <text x="529.430" y="191.481">G</text>
      <text x="527.819" y="176.567">A</text>
      <text x="519.232" y="164.268">A</text>
      <text x="505.788" y="157.615">G</text>
      <text x="490.802" y="158.250">U</text>
      <text x="477.968" y="166.014">U</text>
      <text x="470.451" y="178.995">G</text>
      <text x="470.106" y="193.991">A</text>
      <text x="477.016" y="207.305">A</text>
      <text x="489.477" y="215.652">U</text>
      <text x="474.982" y="211.794">U</text>
      <text x="460.487" y="207.935">U</text>
      <text x="445.992" y="204.076">A</text>
      <text x="431.496" y="200.218">A</text>
      <text x="432.039" y="193.889">U</text>
      <text x="431.922" y="187.537">A</text>
      <text x="431.149" y="181.232">G</text>
      <text x="429.726" y="175.042">U</text>
      <text x="427.670" y="169.031">A</text>
      <text x="425.002" y="163.267">A</text>
      <text x="437.312" y="154.696">U</text>
      <text x="449.623" y="146.126">U</text>
      <text x="461.933" y="137.556">A</text>
      <text x="474.244" y="128.985">G</text>
      <text x="486.554" y="120.415">A</text>
      <text x="500.106" y="127.530">A</text>
      <text x="515.411" y="127.521">U</text>
      <text x="528.954" y="120.390">U</text>
      <text x="537.622" y="107.775">A</text>
      <text x="539.423" y="92.576">A</text>
      <text x="533.944" y="78.285">G</text>
      <text x="522.443" y="68.186">A</text>
      <text x="507.564" y="64.600">A</text>
      <text x="492.725" y="68.350">G</text>
      <text x="481.336" y="78.575">A</text>
      <text x="476.015" y="92.926">A</text>
      <text x="477.984" y="108.104">U</text>
      <text x="465.674" y="116.675">C</text>
      <text x="453.363" y="125.245">U</text>
      <text x="441.052" y="133.815">A</text>
      <text x="428.742" y="142.386">A</text>
      <text x="416.431" y="150.956">U</text>
      <text x="409.154" y="144.022">G</text>
      <text x="400.835" y="138.369">A</text>
      <text x="391.698" y="134.151">A</text>
      <text x="381.989" y="131.482">U</text>
      <text x="371.969" y="130.436">U</text>
      <text x="361.906" y="131.044">G</text>
      <text x="352.073" y="133.290">G</text>
      <text x="342.735" y="137.118">U</text>
      <text x="334.143" y="142.423">U</text>
      <text x="326.530" y="149.067">A</text>
      <text x="320.103" y="156.871">A</text>
      <text x="315.037" y="165.626">A</text>
      <text x="311.468" y="175.097">A</text>
      <text x="296.643" y="172.813">C</text>
      <text x="281.818" y="170.529">G</text>
      <text x="274.725" y="155.661">U</text>
      <text x="259.998" y="147.913">U</text>
      <text x="243.397" y="150.542">A</text>
      <text x="231.552" y="162.700">G</text>
      <text x="216.734" y="160.368">U</text>
      <text x="210.693" y="156.279">A</text>
      <text x="201.865" y="158.053">C</text>
      <text x="187.040" y="155.769">A</text>
      <text x="183.643" y="149.082">A</text>
      <text x="197.749" y="143.978">A</text>
      <text x="211.854" y="138.875">U</text>
      <text x="225.959" y="133.772">C</text>
      <text x="240.891" y="135.201">G</text>
      <text x="253.128" y="126.527">C</text>
      <text x="256.724" y="111.964">C</text>
      <text x="249.931" y="98.590">C</text>
      <text x="236.051" y="92.905">G</text>
      <text x="221.828" y="97.670">U</text>
      <text x="214.175" y="110.570">C</text>
      <text x="201.733" y="118.949">A</text>
      <text x="189.292" y="127.328">C</text>
      <text x="176.851" y="135.708">C</text>
      <text x="173.455" y="129.021">U</text>
      <text x="180.356" y="115.703">U</text>
      <text x="187.257" y="102.384">U</text>
      <text x="194.158" y="89.066">A</text>
      <text x="201.059" y="75.748">A</text>
      <text x="207.959" y="62.429">U</text>
      <text x="222.184" y="67.279">A</text>
      <text x="236.972" y="69.955">A</text>
      <text x="251.994" y="70.397">U</text>
      <text x="266.915" y="68.595">U</text>
      <text x="281.399" y="64.589">A</text>
      <text x="295.125" y="58.468">A</text>
      <text x="307.786" y="50.371">A</text>
      <text x="319.098" y="40.476">G</text>
      <text x="328.809" y="29.007">A</text>
      <text x="336.702" y="16.218">A</text>
      <text x="342.600" y="2.395">U</text>
      <text x="346.372" y="-12.152">U</text>
      <text x="347.934" y="-27.100">U</text>
      <text x="347.251" y="-42.113">A</text>
      <text x="344.338" y="-56.856">A</text>
      <text x="339.260" y="-71.001">U</text>
      <text x="332.130" y="-84.230">U</text>
      <text x="323.108" y="-96.249">G</text>
      <text x="312.395" y="-106.790">A</text>
      <text x="300.231" y="-115.615">U</text>
      <text x="286.887" y="-122.529">A</text>
      <text x="272.662" y="-127.377">A</text>
      <text x="257.873" y="-130.051">U</text>
      <text x="242.851" y="-130.491">U</text>
      <text x="227.931" y="-128.686">U</text>
      <text x="213.447" y="-124.678">A</text>
      <text x="199.722" y="-118.556">A</text>
      <text x="187.063" y="-110.457">U</text>
      <text x="175.752" y="-100.561">A</text>
      <text x="166.043" y="-89.090">U</text>
      <text x="158.152" y="-76.299">U</text>
      <text x="152.255" y="-62.476">A</text>
      <text x="148.485" y="-47.928">C</text>
      <text x="146.925" y="-32.981">U</text>
      <text x="147.610" y="-17.968">U</text>
      <text x="150.526" y="-3.225">U</text>
      <text x="155.606" y="10.919">A</text>
      <text x="162.738" y="24.148">A</text>
      <text x="171.762" y="36.166">A</text>
      <text x="182.476" y="46.704">A</text>
      <text x="194.641" y="55.528">A</text>
      <text x="187.740" y="68.847">U</text>
      <text x="180.839" y="82.165">U</text>
      <text x="173.938" y="95.483">A</text>
      <text x="167.037" y="108.802">A</text>
      <text x="160.136" y="122.120">A</text>
      <text x="152.977" y="119.886">G</text>
      <text x="157.445" y="105.567">C</text>
      <text x="161.913" y="91.248">A</text>
      <text x="166.381" y="76.928">A</text>
      <text x="170.848" y="62.609">G</text>
      <text x="175.316" y="48.290">U</text>
      <text x="179.784" y="33.971">C</text>
      <text x="184.252" y="19.652">G</text>
      <text x="169.933" y="15.184">U</text>
      <text x="165.465" y="29.503">A</text>
      <text x="160.997" y="43.822">A</text>
      <text x="156.529" y="58.141">C</text>
      <text x="152.061" y="72.461">A</text>
      <text x="147.593" y="86.780">U</text>
      <text x="143.126" y="101.099">A</text>
      <text x="138.658" y="115.418">G</text>
      <text x="131.498" y="113.184">U</text>
      <text x="133.395" y="98.304">G</text>
      <text x="135.293" y="83.425">A</text>
      <text x="137.190" y="68.545">G</text>
      <text x="139.088" y="53.666">G</text>
      <text x="140.985" y="38.786">G</text>
      <text x="142.883" y="23.907">G</text>
      <text x="144.780" y="9.027">A</text>
      <text x="146.677" y="-5.852">A</text>
      <text x="148.575" y="-20.732">G</text>
      <text x="158.930" y="-33.448">G</text>
      <text x="152.843" y="-48.675">G</text>
      <text x="136.576" y="-50.750">A</text>
      <text x="126.862" y="-37.537">A</text>
      <text x="133.695" y="-22.629">C</text>
      <text x="131.798" y="-7.750">U</text>
      <text x="129.900" y="7.130">U</text>
      <text x="128.003" y="22.010">C</text>
      <text x="126.106" y="36.889">U</text>
      <text x="124.208" y="51.769">C</text>
      <text x="122.311" y="66.648">C</text>
      <text x="120.413" y="81.528">U</text>
      <text x="118.516" y="96.407">U</text>
      <text x="116.619" y="111.287">G</text>
      <text x="109.121" y="111.104">A</text>
      <text x="109.487" y="96.108">A</text>
      <text x="109.852" y="81.113">A</text>
      <text x="110.218" y="66.117">A</text>
      <text x="110.584" y="51.121">U</text>
      <text x="103.403" y="37.952">G</text>
      <text x="95.589" y="50.756">A</text>
    </g>
  </g>
</svg>
