<?xml version="1.0" encoding="UTF-8" standalone="yes"?>
<svg xmlns="http://www.w3.org/2000/svg" height="452" width="452">
<script type="text/ecmascript">
      <![CDATA[
        var shown = 1;
        function click() {
             var seq = document.getElementById("seq");
             if (shown==1) {
               seq.setAttribute("style", "visibility: hidden");
               shown = 0;
             } else {
               seq.setAttribute("style", "visibility: visible");
               shown = 1;
             }
         }
        ]]>
</script>
  <rect style="stroke: white; fill: white" height="452" x="0" y="0" width="452" onclick="click(evt)" />
  <g transform="scale(1.927851,1.927851) translate(-7.084152,4.229095)">
    <polyline style="stroke: black; fill: none; stroke-width: 1.5" id="outline" points="
      97.098,26.367
      96.406,41.351
      95.713,56.335
      95.020,71.319
      83.874,81.132
      82.958,96.318
      93.327,107.943
      89.428,93.458
      79.043,82.635
      64.732,78.141
      50.024,81.086
      38.545,90.742
      33.127,104.729
      35.105,119.598
      43.991,131.683
      57.594,138.003
      72.561,137.000
      85.199,128.923
      75.616,140.463
      66.033,152.003
      56.187,163.319
      46.081,174.404
      30.465,173.581
      18.005,183.030
      14.584,198.289
      21.817,212.153
      36.290,218.076
      51.168,213.262
      59.427,199.983
      57.166,184.509
      67.272,173.424
      74.345,170.506
      77.573,161.586
      87.156,150.046
      96.739,138.506
      100.089,139.982
      103.980,140.505
      108.128,139.898
      112.197,138.069
      115.821,135.031
      130.677,137.104
      145.533,139.176
      160.390,141.249
      175.246,143.321
      180.940,157.585
      193.013,167.079
      208.217,169.249
      222.464,163.511
      231.920,151.408
      234.042,136.196
      228.259,121.968
      216.127,112.549
      200.909,110.475
      186.698,116.303
      177.318,128.465
      162.462,126.392
      147.606,124.320
      132.750,122.248
      117.894,120.175
      108.311,108.635
      119.708,98.017
      120.197,82.811
      110.004,72.012
      110.697,57.027
      111.390,42.044
      112.082,27.060
      115.160,7.924
    " />
    <g style="stroke: black; stroke-width: 1; fill: none;" id="pairs">
      <line id="1,66" x1="97.09830" y1="26.36676" x2="112.08230" y2="27.05951" />
      <line id="2,65" x1="96.40555" y1="41.35075" x2="111.38954" y2="42.04350" />
      <line id="3,64" x1="95.71280" y1="56.33475" x2="110.69679" y2="57.02750" />
      <line id="4,63" x1="95.02004" y1="71.31874" x2="110.00404" y2="72.01151" />
      <line id="7,60" x1="93.32683" y1="107.94257" x2="108.31082" y2="108.63531" />
      <line id="18,35" x1="85.19889" y1="128.92319" x2="96.73890" y2="138.50589" />
      <line id="19,34" x1="75.61619" y1="140.46320" x2="87.15620" y2="150.04590" />
      <line id="20,33" x1="66.03349" y1="152.00320" x2="77.57349" y2="161.58591" />
      <line id="21,31" x1="56.18679" y1="163.31880" x2="67.27192" y2="173.42424" />
      <line id="22,30" x1="46.08135" y1="174.40393" x2="57.16648" y2="184.50937" />
      <line id="40,59" x1="115.82117" y1="135.03149" x2="117.89352" y2="120.17532" />
      <line id="41,58" x1="130.67734" y1="137.10382" x2="132.74968" y2="122.24767" />
      <line id="42,57" x1="145.53349" y1="139.17618" x2="147.60583" y2="124.32001" />
      <line id="43,56" x1="160.38965" y1="141.24852" x2="162.46199" y2="126.39236" />
      <line id="44,55" x1="175.24580" y1="143.32086" x2="177.31815" y2="128.46471" />
    </g>
    <g style="font-family: SansSerif" transform="translate(-4.6, 4)" id="seq">
      <text x="97.098" y="26.367">A</text>
      <text x="96.406" y="41.351">G</text>
      <text x="95.713" y="56.335">U</text>
      <text x="95.020" y="71.319">U</text>
      <text x="83.874" y="81.132">U</text>
      <text x="82.958" y="96.318">U</text>
      <text x="93.327" y="107.943">U</text>
      <text x="89.428" y="93.458">U</text>
      <text x="79.043" y="82.635">A</text>
      <text x="64.732" y="78.141">A</text>
      <text x="50.024" y="81.086">A</text>
      <text x="38.545" y="90.742">U</text>
      <text x="33.127" y="104.729">A</text>
      <text x="35.105" y="119.598">A</text>
      <text x="43.991" y="131.683">C</text>
      <text x="57.594" y="138.003">A</text>
      <text x="72.561" y="137.000">A</text>
      <text x="85.199" y="128.923">U</text>
      <text x="75.616" y="140.463">U</text>
      <text x="66.033" y="152.003">A</text>
      <text x="56.187" y="163.319">A</text>
      <text x="46.081" y="174.404">U</text>
      <text x="30.465" y="173.581">U</text>
      <text x="18.005" y="183.030">U</text>
      <text x="14.584" y="198.289">G</text>
      <text x="21.817" y="212.153">C</text>
      <text x="36.290" y="218.076">A</text>
      <text x="51.168" y="213.262">A</text>
      <text x="59.427" y="199.983">A</text>
      <text x="57.166" y="184.509">A</text>
      <text x="67.272" y="173.424">U</text>
      <text x="74.345" y="170.506">A</text>
      <text x="77.573" y="161.586">U</text>
      <text x="87.156" y="150.046">A</text>
      <text x="96.739" y="138.506">G</text>
      <text x="100.089" y="139.982">U</text>
      <text x="103.980" y="140.505">A</text>
      <text x="108.128" y="139.898">A</text>
      <text x="112.197" y="138.069">A</text>
      <text x="115.821" y="135.031">G</text>
      <text x="130.677" y="137.104">U</text>
      <text x="145.533" y="139.176">G</text>
      <text x="160.390" y="141.249">G</text>
      <text x="175.246" y="143.321">U</text>
      <text x="180.940" y="157.585">C</text>
      <text x="193.013" y="167.079">A</text>
      <text x="208.217" y="169.249">G</text>
      <text x="222.464" y="163.511">C</text>
      <text x="231.920" y="151.408">U</text>
      <text x="234.042" y="136.196">U</text>
      <text x="228.259" y="121.968">C</text>
      <text x="216.127" y="112.549">A</text>
      <text x="200.909" y="110.475">A</text>
      <text x="186.698" y="116.303">A</text>
      <text x="177.318" y="128.465">A</text>
      <text x="162.462" y="126.392">U</text>
      <text x="147.606" y="124.320">U</text>
      <text x="132.750" y="122.248">A</text>
      <text x="117.894" y="120.175">U</text>
      <text x="108.311" y="108.635">A</text>
      <text x="119.708" y="98.017">U</text>
      <text x="120.197" y="82.811">U</text>
      <text x="110.004" y="72.012">G</text>
      <text x="110.697" y="57.027">G</text>
      <text x="111.390" y="42.044">U</text>
      <text x="112.082" y="27.060">U</text>
      <text x="115.160" y="7.924">U</text>
    </g>
  </g>
</svg>
