<?xml version="1.0" encoding="UTF-8" standalone="yes"?>
<svg xmlns="http://www.w3.org/2000/svg" height="452" width="452">
<script type="text/ecmascript">
      <![CDATA[
        var shown = 1;
        function click() {
             var seq = document.getElementById("seq");
             if (shown==1) {
               seq.setAttribute("style", "visibility: hidden");
               shown = 0;
             } else {
               seq.setAttribute("style", "visibility: visible");
               shown = 1;
             }
         }
        ]]>
</script>
  <rect style="stroke: white; fill: white" height="452" x="0" y="0" width="452" onclick="click(evt)" />
  <g transform="scale(1.731571,1.731571) translate(51.740204,15.381927)">
    <polyline style="stroke: black; fill: none; stroke-width: 1.5" id="outline" points="
      105.439,10.480
      101.812,17.261
      105.040,26.235
      105.040,41.235
      105.040,56.235
      105.040,71.235
      105.040,86.235
      86.835,89.201
      71.901,99.146
      62.676,113.947
      60.461,130.740
      45.768,133.759
      31.075,136.778
      16.382,139.798
      3.326,130.893
      -12.188,133.910
      -20.955,147.060
      -17.773,162.541
      -4.531,171.168
      10.915,167.823
      19.402,154.491
      34.095,151.471
      48.787,148.452
      63.480,145.432
      70.172,156.229
      79.941,164.347
      91.779,168.949
      104.466,169.560
      108.957,183.872
      113.447,198.184
      104.875,211.262
      106.766,226.785
      118.228,237.423
      133.848,238.153
      146.252,228.630
      149.582,213.351
      142.267,199.530
      127.759,193.693
      123.269,179.381
      118.779,165.069
      126.607,160.439
      133.290,154.045
      138.432,146.170
      141.704,137.188
      142.870,127.544
      141.800,117.732
      138.480,108.274
      152.264,102.358
      168.476,104.829
      178.509,91.857
      172.042,76.787
      155.727,75.122
      146.349,88.574
      132.564,94.489
      120.040,86.235
      120.040,71.235
      120.040,56.235
      120.040,41.235
      120.040,26.235
      120.420,11.240
      123.583,-7.882
    " />
    <g style="stroke: black; stroke-width: 1; fill: none;" id="pairs">
      <line id="1,60" x1="105.43888" y1="10.48012" x2="120.41962" y2="11.23985" />
      <line id="3,59" x1="105.03963" y1="26.23505" x2="120.03963" y2="26.23505" />
      <line id="4,58" x1="105.03963" y1="41.23505" x2="120.03963" y2="41.23505" />
      <line id="5,57" x1="105.03963" y1="56.23505" x2="120.03963" y2="56.23505" />
      <line id="6,56" x1="105.03963" y1="71.23505" x2="120.03963" y2="71.23505" />
      <line id="7,55" x1="105.03963" y1="86.23505" x2="120.03963" y2="86.23505" />
      <line id="11,24" x1="60.46093" y1="130.73950" x2="63.48040" y2="145.43246" />
      <line id="12,23" x1="45.76797" y1="133.75897" x2="48.78745" y2="148.45193" />
      <line id="13,22" x1="31.07503" y1="136.77846" x2="34.09451" y2="151.47141" />
      <line id="14,21" x1="16.38208" y1="139.79794" x2="19.40156" y2="154.49089" />
      <line id="28,40" x1="104.46645" y1="169.55954" x2="118.77854" y2="165.06909" />
      <line id="29,39" x1="108.95689" y1="183.87163" x2="123.26898" y2="179.38118" />
      <line id="30,38" x1="113.44734" y1="198.18372" x2="127.75943" y2="193.69327" />
      <line id="47,54" x1="138.47955" y1="108.27380" x2="132.56421" y2="94.48943" />
      <line id="48,53" x1="152.26392" y1="102.35846" x2="146.34859" y2="88.57410" />
    </g>
    <g style="font-family: SansSerif" transform="translate(-4.6, 4)" id="seq">
      <text x="105.439" y="10.480">C</text>
      <text x="101.812" y="17.261">G</text>
      <text x="105.040" y="26.235">U</text>
      <text x="105.040" y="41.235">A</text>
      <text x="105.040" y="56.235">A</text>
      <text x="105.040" y="71.235">U</text>
      <text x="105.040" y="86.235">A</text>
      <text x="86.835" y="89.201">U</text>
      <text x="71.901" y="99.146">G</text>
      <text x="62.676" y="113.947">A</text>
      <text x="60.461" y="130.740">G</text>
      <text x="45.768" y="133.759">U</text>
      <text x="31.075" y="136.778">U</text>
      <text x="16.382" y="139.798">U</text>
      <text x="3.326" y="130.893">A</text>
      <text x="-12.188" y="133.910">A</text>
      <text x="-20.955" y="147.060">U</text>
      <text x="-17.773" y="162.541">A</text>
      <text x="-4.531" y="171.168">U</text>
      <text x="10.915" y="167.823">A</text>
      <text x="19.402" y="154.491">A</text>
      <text x="34.095" y="151.471">A</text>
      <text x="48.787" y="148.452">A</text>
      <text x="63.480" y="145.432">U</text>
      <text x="70.172" y="156.229">A</text>
      <text x="79.941" y="164.347">A</text>
      <text x="91.779" y="168.949">A</text>
      <text x="104.466" y="169.560">A</text>
      <text x="108.957" y="183.872">U</text>
      <text x="113.447" y="198.184">U</text>
      <text x="104.875" y="211.262">U</text>
      <text x="106.766" y="226.785">U</text>
      <text x="118.228" y="237.423">U</text>
      <text x="133.848" y="238.153">G</text>
      <text x="146.252" y="228.630">G</text>
      <text x="149.582" y="213.351">G</text>
      <text x="142.267" y="199.530">G</text>
      <text x="127.759" y="193.693">G</text>
      <text x="123.269" y="179.381">G</text>
      <text x="118.779" y="165.069">U</text>
      <text x="126.607" y="160.439">A</text>
      <text x="133.290" y="154.045">A</text>
      <text x="138.432" y="146.170">C</text>
      <text x="141.704" y="137.188">A</text>
      <text x="142.870" y="127.544">A</text>
      <text x="141.800" y="117.732">U</text>
      <text x="138.480" y="108.274">A</text>
      <text x="152.264" y="102.358">G</text>
      <text x="168.476" y="104.829">G</text>
      <text x="178.509" y="91.857">U</text>
      <text x="172.042" y="76.787">C</text>
      <text x="155.727" y="75.122">A</text>
      <text x="146.349" y="88.574">U</text>
      <text x="132.564" y="94.489">U</text>
      <text x="120.040" y="86.235">U</text>
      <text x="120.040" y="71.235">A</text>
      <text x="120.040" y="56.235">U</text>
      <text x="120.040" y="41.235">U</text>
      <text x="120.040" y="26.235">A</text>
      <text x="120.420" y="11.240">G</text>
      <text x="123.583" y="-7.882">A</text>
    </g>
  </g>
</svg>
