<?xml version="1.0" encoding="UTF-8" standalone="yes"?>
<svg xmlns="http://www.w3.org/2000/svg" height="452" width="452">
<script type="text/ecmascript">
      <![CDATA[
        var shown = 1;
        function click() {
             var seq = document.getElementById("seq");
             if (shown==1) {
               seq.setAttribute("style", "visibility: hidden");
               shown = 0;
             } else {
               seq.setAttribute("style", "visibility: visible");
               shown = 1;
             }
         }
        ]]>
</script>
  <rect style="stroke: white; fill: white" height="452" x="0" y="0" width="452" onclick="click(evt)" />
  <g transform="scale(1.586613,1.586613) translate(29.685310,34.348915)">
    <polyline style="stroke: black; fill: none; stroke-width: 1.5" id="outline" points="
      111.742,-8.371
      111.078,6.615
      110.415,21.600
      109.751,36.585
      109.088,51.571
      108.424,66.556
      107.761,81.541
      91.454,83.553
      78.622,92.424
      71.759,105.503
      56.851,103.847
      41.943,102.191
      27.034,100.535
      17.358,88.039
      1.670,86.129
      -10.723,95.937
      -12.468,111.644
      -2.529,123.933
      13.196,125.511
      25.379,115.443
      40.287,117.099
      55.195,118.755
      70.104,120.411
      75.417,133.716
      86.265,143.074
      82.973,157.709
      72.396,169.475
      77.152,183.590
      73.861,198.224
      59.886,205.241
      53.738,219.619
      58.320,234.570
      71.469,243.035
      86.976,241.016
      97.519,229.466
      98.120,213.840
      88.495,201.516
      91.786,186.881
      102.128,176.162
      97.608,161.000
      100.899,146.366
      111.781,145.136
      121.867,139.981
      129.746,131.330
      134.217,120.110
      134.464,107.660
      149.431,106.665
      164.398,105.671
      179.365,104.676
      194.332,103.681
      205.025,115.091
      220.557,116.908
      233.594,108.273
      237.981,93.263
      231.646,78.966
      217.580,72.132
      202.426,75.989
      193.337,88.714
      178.370,89.709
      163.403,90.704
      148.436,91.698
      133.469,92.693
      122.746,82.205
      123.410,67.219
      124.073,52.234
      124.737,37.249
      125.400,22.263
      126.064,7.278
      126.727,-7.707
      129.768,-26.849
    " />
    <g style="stroke: black; stroke-width: 1; fill: none;" id="pairs">
      <line id="1,69" x1="111.74189" y1="-8.37070" x2="126.72721" y2="-7.70720" />
      <line id="2,68" x1="111.07839" y1="6.61462" x2="126.06371" y2="7.27812" />
      <line id="3,67" x1="110.41489" y1="21.59995" x2="125.40021" y2="22.26344" />
      <line id="4,66" x1="109.75139" y1="36.58527" x2="124.73671" y2="37.24876" />
      <line id="5,65" x1="109.08789" y1="51.57057" x2="124.07321" y2="52.23409" />
      <line id="6,64" x1="108.42439" y1="66.55589" x2="123.40971" y2="67.21939" />
      <line id="7,63" x1="107.76089" y1="81.54121" x2="122.74621" y2="82.20471" />
      <line id="10,23" x1="71.75945" y1="105.50283" x2="70.10355" y2="120.41115" />
      <line id="11,22" x1="56.85114" y1="103.84692" x2="55.19522" y2="118.75524" />
      <line id="12,21" x1="41.94282" y1="102.19101" x2="40.28691" y2="117.09933" />
      <line id="13,20" x1="27.03450" y1="100.53510" x2="25.37859" y2="115.44342" />
      <line id="25,41" x1="86.26482" y1="143.07433" x2="100.89922" y2="146.36591" />
      <line id="26,40" x1="82.97325" y1="157.70872" x2="97.60764" y2="161.00031" />
      <line id="28,38" x1="77.15211" y1="183.58960" x2="91.78650" y2="186.88116" />
      <line id="29,37" x1="73.86053" y1="198.22398" x2="88.49493" y2="201.51556" />
      <line id="46,62" x1="134.46434" y1="107.66032" x2="133.46948" y2="92.69334" />
      <line id="47,61" x1="149.43130" y1="106.66547" x2="148.43646" y2="91.69849" />
      <line id="48,60" x1="164.39828" y1="105.67062" x2="163.40344" y2="90.70365" />
      <line id="49,59" x1="179.36525" y1="104.67578" x2="178.37041" y2="89.70881" />
      <line id="50,58" x1="194.33223" y1="103.68094" x2="193.33739" y2="88.71397" />
    </g>
    <g style="font-family: SansSerif" transform="translate(-4.6, 4)" id="seq">
      <text x="111.742" y="-8.371">G</text>
      <text x="111.078" y="6.615">G</text>
      <text x="110.415" y="21.600">G</text>
      <text x="109.751" y="36.585">G</text>
      <text x="109.088" y="51.571">A</text>
      <text x="108.424" y="66.556">G</text>
      <text x="107.761" y="81.541">U</text>
      <text x="91.454" y="83.553">U</text>
      <text x="78.622" y="92.424">A</text>
      <text x="71.759" y="105.503">A</text>
      <text x="56.851" y="103.847">G</text>
      <text x="41.943" y="102.191">U</text>
      <text x="27.034" y="100.535">U</text>
      <text x="17.358" y="88.039">A</text>
      <text x="1.670" y="86.129">A</text>
      <text x="-10.723" y="95.937">U</text>
      <text x="-12.468" y="111.644">G</text>
      <text x="-2.529" y="123.933">A</text>
      <text x="13.196" y="125.511">A</text>
      <text x="25.379" y="115.443">A</text>
      <text x="40.287" y="117.099">A</text>
      <text x="55.195" y="118.755">C</text>
      <text x="70.104" y="120.411">U</text>
      <text x="75.417" y="133.716">A</text>
      <text x="86.265" y="143.074">A</text>
      <text x="82.973" y="157.709">U</text>
      <text x="72.396" y="169.475">U</text>
      <text x="77.152" y="183.590">G</text>
      <text x="73.861" y="198.224">C</text>
      <text x="59.886" y="205.241">C</text>
      <text x="53.738" y="219.619">U</text>
      <text x="58.320" y="234.570">U</text>
      <text x="71.469" y="243.035">C</text>
      <text x="86.976" y="241.016">A</text>
      <text x="97.519" y="229.466">A</text>
      <text x="98.120" y="213.840">A</text>
      <text x="88.495" y="201.516">G</text>
      <text x="91.786" y="186.881">C</text>
      <text x="102.128" y="176.162">U</text>
      <text x="97.608" y="161.000">A</text>
      <text x="100.899" y="146.366">U</text>
      <text x="111.781" y="145.136">U</text>
      <text x="121.867" y="139.981">A</text>
      <text x="129.746" y="131.330">A</text>
      <text x="134.217" y="120.110">U</text>
      <text x="134.464" y="107.660">A</text>
      <text x="149.431" y="106.665">U</text>
      <text x="164.398" y="105.671">U</text>
      <text x="179.365" y="104.676">G</text>
      <text x="194.332" y="103.681">G</text>
      <text x="205.025" y="115.091">U</text>
      <text x="220.557" y="116.908">U</text>
      <text x="233.594" y="108.273">C</text>
      <text x="237.981" y="93.263">A</text>
      <text x="231.646" y="78.966">A</text>
      <text x="217.580" y="72.132">A</text>
      <text x="202.426" y="75.989">U</text>
      <text x="193.337" y="88.714">C</text>
      <text x="178.370" y="89.709">C</text>
      <text x="163.403" y="90.704">A</text>
      <text x="148.436" y="91.698">A</text>
      <text x="133.469" y="92.693">U</text>
      <text x="122.746" y="82.205">A</text>
      <text x="123.410" y="67.219">C</text>
      <text x="124.073" y="52.234">U</text>
      <text x="124.737" y="37.249">C</text>
      <text x="125.400" y="22.263">C</text>
      <text x="126.064" y="7.278">C</text>
      <text x="126.727" y="-7.707">U</text>
      <text x="129.768" y="-26.849">G</text>
    </g>
  </g>
</svg>
